<?xml version="1.0" standalone="no"?>
<!DOCTYPE svg PUBLIC "-//W3C//DTD SVG 1.1//EN" "http://www.w3.org/Graphics/SVG/1.1/DTD/svg11.dtd" >
<svg xmlns="http://www.w3.org/2000/svg">
  <metadata>Created by iconfont</metadata>
  <defs>
  <font id="iconfont" horiz-adv-x="1024">
    <font-face
      font-family="iconfont"
      font-weight="400"
      font-stretch="normal"
      units-per-em="1024"
      ascent="896"
      descent="-128"
    />
      <missing-glyph />
      
      <glyph glyph-name="shipin3" unicode="&#59131;" d="M292.571429 530.285714m-73.142858 0a73.142857 73.142857 0 1 1 146.285715 0 73.142857 73.142857 0 1 1-146.285715 0ZM727.771429 18.285714h-512c-80.457143 0-146.285714 65.828571-146.285715 146.285715V603.428571c0 80.457143 65.828571 146.285714 146.285715 146.285715h512c80.457143 0 146.285714-65.828571 146.285714-146.285715v-438.857142c0-80.457143-65.828571-146.285714-146.285714-146.285715zM215.771429 676.571429c-40.228571 0-73.142857-32.914286-73.142858-73.142858v-438.857142c0-40.228571 32.914286-73.142857 73.142858-73.142858h512c40.228571 0 73.142857 32.914286 73.142857 73.142858V603.428571c0 40.228571-32.914286 73.142857-73.142857 73.142858h-512zM950.857143 164.571429c-21.942857 0-36.571429 14.628571-36.571429 36.571428v329.142857c0 21.942857 14.628571 36.571429 36.571429 36.571429s36.571429-14.628571 36.571428-36.571429v-329.142857c0-21.942857-14.628571-36.571429-36.571428-36.571428z"  horiz-adv-x="1024" />
      
      <glyph glyph-name="lianjie1" unicode="&#59125;" d="M373.028571-25.6c-73.142857 0-142.628571 29.257143-193.828571 80.457143-51.2 51.2-80.457143 120.685714-80.457143 193.828571s29.257143 142.628571 80.457143 193.828572l80.457143 80.457143c14.628571 14.628571 36.571429 14.628571 51.2 0s14.628571-36.571429 0-51.2l-80.457143-80.457143c-36.571429-36.571429-58.514286-87.771429-58.514286-142.628572s21.942857-102.4 58.514286-142.628571 87.771429-58.514286 142.628571-58.514286 106.057143 21.942857 142.628572 58.514286l62.171428 62.171428c14.628571 14.628571 36.571429 14.628571 51.2 0s14.628571-36.571429 0-51.2L566.857143 54.857143c-51.2-51.2-120.685714-80.457143-193.828572-80.457143z m362.057143 266.971429c-10.971429 0-18.285714 3.657143-25.6 10.971428-14.628571 14.628571-14.628571 36.571429 0 51.2l80.457143 80.457143c36.571429 36.571429 58.514286 87.771429 58.514286 142.628571s-21.942857 106.057143-58.514286 142.628572-87.771429 58.514286-142.628571 58.514286-106.057143-21.942857-142.628572-58.514286L438.857143 599.771429c-14.628571-14.628571-36.571429-14.628571-51.2 0s-14.628571 36.571429 0 51.2l65.828571 65.828571c51.2 51.2 120.685714 80.457143 193.828572 80.457143s142.628571-29.257143 193.828571-80.457143c51.2-51.2 80.457143-120.685714 80.457143-193.828571s-29.257143-142.628571-80.457143-193.828572l-80.457143-80.457143c-3.657143-3.657143-14.628571-7.314286-25.6-7.314285zM402.285714 237.714286c-10.971429 0-18.285714 3.657143-25.6 10.971428-14.628571 14.628571-14.628571 36.571429 0 51.2l219.428572 219.428572c14.628571 14.628571 36.571429 14.628571 51.2 0s14.628571-36.571429 0-51.2l-219.428572-219.428572c-7.314286-7.314286-14.628571-10.971429-25.6-10.971428z"  horiz-adv-x="1024" />
      
      <glyph glyph-name="wenjian2" unicode="&#59126;" d="M768 603.428571h-146.285714c0 80.457143-65.828571 146.285714-146.285715 146.285715H256C175.542857 749.714286 109.714286 683.885714 109.714286 603.428571v-475.428571c0-80.457143 65.828571-146.285714 146.285714-146.285714h512c80.457143 0 146.285714 65.828571 146.285714 146.285714v329.142857c0 80.457143-65.828571 146.285714-146.285714 146.285714zM256 676.571429h219.428571c40.228571 0 73.142857-32.914286 73.142858-73.142858H182.857143c0 40.228571 32.914286 73.142857 73.142857 73.142858z m585.142857-548.571429c0-40.228571-32.914286-73.142857-73.142857-73.142857H256c-40.228571 0-73.142857 32.914286-73.142857 73.142857V530.285714h585.142857c40.228571 0 73.142857-32.914286 73.142857-73.142857v-329.142857zM658.285714 135.314286h-292.571428c-21.942857 0-36.571429 14.628571-36.571429 36.571428s14.628571 36.571429 36.571429 36.571429h292.571428c21.942857 0 36.571429-14.628571 36.571429-36.571429s-14.628571-36.571429-36.571429-36.571428z"  horiz-adv-x="1024" />
      
      <glyph glyph-name="yinpin" unicode="&#59127;" d="M512 256c-117.028571 0-208.457143 95.085714-208.457143 208.457143V588.8c0 117.028571 95.085714 208.457143 208.457143 208.457143s208.457143-95.085714 208.457143-208.457143v-124.342857c0-117.028571-91.428571-208.457143-208.457143-208.457143z m0 468.114286c-73.142857 0-135.314286-62.171429-135.314286-135.314286v-124.342857c0-73.142857 62.171429-135.314286 135.314286-135.314286s135.314286 62.171429 135.314286 135.314286V588.8c0 76.8-62.171429 135.314286-135.314286 135.314286zM471.771429 431.542857c-21.942857 0-36.571429 14.628571-36.571429 36.571429V585.142857c0 21.942857 14.628571 36.571429 36.571429 36.571429s36.571429-14.628571 36.571428-36.571429v-117.028571c0-21.942857-18.285714-36.571429-36.571428-36.571429zM841.142857 424.228571c0 21.942857-14.628571 36.571429-36.571428 36.571429s-36.571429-14.628571-36.571429-36.571429c0-142.628571-113.371429-256-256-256s-256 113.371429-256 256c0 21.942857-14.628571 36.571429-36.571429 36.571429s-36.571429-14.628571-36.571428-36.571429c0-168.228571 128-307.2 292.571428-325.485714v-91.428571c0-21.942857 14.628571-36.571429 36.571429-36.571429s36.571429 14.628571 36.571429 36.571429v91.428571c164.571429 14.628571 292.571429 153.6 292.571428 325.485714z"  horiz-adv-x="1024" />
      
      <glyph glyph-name="lianjie_danse" unicode="&#59128;" d="M405.333333-17.066667c-68.266667 0-136.533333 25.6-187.733333 76.8-51.2 51.2-76.8 115.2-76.8 187.733334s25.6 136.533333 76.8 187.733333l72.533333 72.533333c12.8 12.8 34.133333 12.8 46.933334 0s12.8-34.133333 0-46.933333l-72.533334-72.533333c-38.4-38.4-59.733333-89.6-59.733333-140.8s21.333333-102.4 59.733333-140.8c76.8-76.8 204.8-76.8 281.6 0l72.533334 72.533333c12.8 12.8 34.133333 12.8 46.933333 0s12.8-34.133333 0-46.933333l-72.533333-72.533334c-51.2-51.2-119.466667-76.8-187.733334-76.8z m328.533334 230.4c-8.533333 0-17.066667 4.266667-21.333334 8.533334-12.8 12.8-12.8 34.133333 0 46.933333l72.533334 72.533333c76.8 76.8 76.8 204.8 0 281.6-42.666667 38.4-89.6 59.733333-145.066667 59.733334s-102.4-21.333333-140.8-59.733334L426.666667 554.666667c-12.8-12.8-29.866667-12.8-42.666667 0s-12.8 29.866667 0 42.666666l72.533333 72.533334c102.4 102.4 268.8 102.4 375.466667 0 102.4-102.4 102.4-268.8 0-375.466667l-72.533333-72.533333c-8.533333-4.266667-17.066667-8.533333-25.6-8.533334z m-307.2 25.6c-8.533333 0-17.066667 4.266667-21.333334 8.533334-12.8 12.8-12.8 34.133333 0 46.933333l213.333334 213.333333c12.8 12.8 34.133333 12.8 46.933333 0s12.8-34.133333 0-46.933333l-213.333333-213.333333c-8.533333-4.266667-17.066667-8.533333-25.6-8.533334z"  horiz-adv-x="1024" />
      
      <glyph glyph-name="tupian1" unicode="&#59129;" d="M768 749.714286H256C175.542857 749.714286 109.714286 683.885714 109.714286 603.428571v-438.857142c0-80.457143 65.828571-146.285714 146.285714-146.285715h512c80.457143 0 146.285714 65.828571 146.285714 146.285715V603.428571c0 80.457143-65.828571 146.285714-146.285714 146.285715zM256 676.571429h512c40.228571 0 73.142857-32.914286 73.142857-73.142858v-164.571428l-109.714286 117.028571c-14.628571 14.628571-40.228571 14.628571-51.2 0l-252.342857-263.314285-76.8 80.457142c-14.628571 14.628571-40.228571 14.628571-51.2 0l-109.714285-117.028571V603.428571C182.857143 643.657143 215.771429 676.571429 256 676.571429z m512-585.142858H256c-36.571429 0-65.828571 25.6-73.142857 58.514286l135.314286 142.628572 76.8-80.457143c14.628571-14.628571 40.228571-14.628571 51.2 0l252.342857 263.314285 138.971428-146.285714V164.571429c3.657143-40.228571-29.257143-73.142857-69.485714-73.142858zM365.714286 530.285714m-73.142857 0a73.142857 73.142857 0 1 1 146.285714 0 73.142857 73.142857 0 1 1-146.285714 0Z"  horiz-adv-x="1024" />
      
      <glyph glyph-name="yinpin_danse" unicode="&#59130;" d="M512 256c-119.466667 0-213.333333 93.866667-213.333333 213.333333V597.333333c0 119.466667 93.866667 213.333333 213.333333 213.333334s213.333333-93.866667 213.333333-213.333334v-128c0-119.466667-93.866667-213.333333-213.333333-213.333333z m0 490.666667c-81.066667 0-149.333333-68.266667-149.333333-149.333334v-128c0-81.066667 68.266667-149.333333 149.333333-149.333333s149.333333 68.266667 149.333333 149.333333V597.333333c0 81.066667-68.266667 149.333333-149.333333 149.333334zM469.333333 439.466667c-17.066667 0-34.133333 12.8-34.133333 34.133333V593.066667c0 17.066667 12.8 34.133333 34.133333 34.133333s34.133333-12.8 34.133334-34.133333v-119.466667c0-21.333333-17.066667-34.133333-34.133334-34.133333zM844.8 426.666667c0 17.066667-12.8 34.133333-34.133333 34.133333s-34.133333-12.8-34.133334-34.133333c0-145.066667-119.466667-268.8-268.8-268.8S247.466667 281.6 247.466667 426.666667c0 17.066667-12.8 34.133333-34.133334 34.133333s-29.866667-17.066667-29.866666-34.133333c0-170.666667 132.266667-311.466667 298.666666-328.533334v-93.866666c0-17.066667 12.8-34.133333 34.133334-34.133334s34.133333 12.8 34.133333 34.133334v93.866666c162.133333 17.066667 294.4 157.866667 294.4 328.533334z"  horiz-adv-x="1024" />
      
      <glyph glyph-name="tianjiafujian" unicode="&#59124;" d="M512 384m-426.666667 0a426.666667 426.666667 0 1 1 853.333334 0 426.666667 426.666667 0 1 1-853.333334 0ZM512-71.111111c-250.311111 0-455.111111 204.8-455.111111 455.111111s204.8 455.111111 455.111111 455.111111 455.111111-204.8 455.111111-455.111111-204.8-455.111111-455.111111-455.111111zM512 782.222222C290.133333 782.222222 113.777778 605.866667 113.777778 384s176.355556-398.222222 398.222222-398.222222 398.222222 176.355556 398.222222 398.222222-176.355556 398.222222-398.222222 398.222222zM290.133333 162.133333c-68.266667 68.266667-68.266667 176.355556 0 238.933334l79.644445 79.644444c39.822222 39.822222 108.088889 39.822222 153.6 0s39.822222-108.088889 0-153.6l-79.644445-79.644444c-11.377778-11.377778-28.444444-11.377778-39.822222 0s-11.377778 28.444444 0 39.822222l79.644445 79.644444c17.066667 17.066667 17.066667 51.2 0 68.266667-22.755556 28.444444-56.888889 28.444444-73.955556 5.688889L329.955556 361.244444c-45.511111-45.511111-45.511111-113.777778 0-159.288888 45.511111-45.511111 113.777778-45.511111 159.288888 0l199.111112 199.111111c45.511111 45.511111 45.511111 113.777778 0 159.288889-45.511111 45.511111-113.777778 45.511111-159.288889 0-5.688889-5.688889-28.444444-5.688889-39.822223 5.688888-11.377778 11.377778-11.377778 28.444444 0 39.822223 68.266667 68.266667 176.355556 68.266667 238.933334 0s68.266667-176.355556 0-238.933334l-199.111111-199.111111c-62.577778-73.955556-170.666667-73.955556-238.933334-5.688889z"  horiz-adv-x="1024" />
      
      <glyph glyph-name="rili" unicode="&#59121;" d="M947.2 684.8c0 38.4-32 76.8-76.8 76.8h-160v25.6c0 19.2-12.8 32-32 32s-32-12.8-32-32v-32H371.2v32c0 19.2-12.8 32-32 32s-32-12.8-32-32v-32H147.2c-38.4 0-76.8-32-76.8-76.8v-659.2c0-38.4 32-76.8 76.8-76.8h723.2c38.4 0 76.8 32 76.8 76.8V684.8z m-806.4 0c0 6.4 6.4 12.8 12.8 12.8h160v-76.8c0-19.2 12.8-32 32-32s32 12.8 32 32V691.2h275.2v-76.8c0-19.2 12.8-32 32-32s32 12.8 32 32V691.2h160c6.4 0 12.8-6.4 12.8-12.8v-160H140.8V684.8z m742.4-665.6c0-6.4-6.4-12.8-12.8-12.8H147.2c-6.4 0-12.8 6.4-12.8 12.8V460.8h748.8v-441.6zM307.2 300.8h102.4c19.2 0 32 12.8 32 32s-12.8 32-32 32H307.2c-19.2 0-32-12.8-32-32s12.8-32 32-32zM307.2 147.2h102.4c19.2 0 32 12.8 32 32s-12.8 32-32 32H307.2c-19.2 0-32-12.8-32-32s12.8-32 32-32zM614.4 300.8h102.4c19.2 0 32 12.8 32 32s-12.8 32-32 32H614.4c-19.2 0-32-12.8-32-32s12.8-32 32-32zM614.4 147.2h102.4c19.2 0 32 12.8 32 32s-12.8 32-32 32H614.4c-19.2 0-32-12.8-32-32s12.8-32 32-32z"  horiz-adv-x="1024" />
      
      <glyph glyph-name="paixuxia" unicode="&#59122;" d="M467.2 44.8c25.6-25.6 64-25.6 89.6 0l172.8 172.8c38.4 38.4 12.8 108.8-44.8 108.8H339.2c-57.6 0-83.2-70.4-44.8-108.8l172.8-172.8zM467.2 723.2c25.6 25.6 64 25.6 89.6 0l172.8-172.8c38.4-38.4 12.8-108.8-44.8-108.8H339.2C281.6 441.6 256 512 294.4 550.4l172.8 172.8z"  horiz-adv-x="1024" />
      
      <glyph glyph-name="paixushang" unicode="&#59123;" d="M467.2 723.2c25.6 25.6 64 25.6 89.6 0l172.8-172.8c38.4-38.4 12.8-108.8-44.8-108.8H339.2C281.6 441.6 256 512 294.4 550.4l172.8 172.8zM467.2 44.8c25.6-25.6 64-25.6 89.6 0l172.8 172.8c38.4 38.4 12.8 108.8-44.8 108.8H339.2c-57.6 0-83.2-70.4-44.8-108.8l172.8-172.8z"  horiz-adv-x="1024" />
      
      <glyph glyph-name="qutougao" unicode="&#59119;" d="M192 736h640c35.2 0 64-28.8 64-64v-640c0-35.2-28.8-64-64-64H192c-35.2 0-64 28.8-64 64V672c0 35.2 28.8 64 64 64zM224 672h576c19.2 0 32-12.8 32-32v-576c0-19.2-12.8-32-32-32H224c-19.2 0-32 12.8-32 32V640c0 19.2 12.8 32 32 32zM736 480c0-19.2-12.8-32-32-32H320c-19.2 0-32 12.8-32 32s12.8 32 32 32h384c19.2 0 32-12.8 32-32zM736 320c0-19.2-12.8-32-32-32H320c-19.2 0-32 12.8-32 32s12.8 32 32 32h384c19.2 0 32-12.8 32-32zM576 160c0-19.2-12.8-32-32-32h-224c-19.2 0-32 12.8-32 32s12.8 32 32 32h224c19.2 0 32-12.8 32-32zM256 768c0 19.2 12.8 32 32 32s32-12.8 32-32v-128c0-19.2-12.8-32-32-32s-32 12.8-32 32V768zM480 768c0 19.2 12.8 32 32 32s32-12.8 32-32v-128c0-19.2-12.8-32-32-32s-32 12.8-32 32V768zM704 768c0 19.2 12.8 32 32 32s32-12.8 32-32v-128c0-19.2-12.8-32-32-32s-32 12.8-32 32V768z"  horiz-adv-x="1024" />
      
      <glyph glyph-name="shangchuanzuowen" unicode="&#59120;" d="M204.8 780.8h617.6c35.2 0 64-28.8 64-64v-592c0-35.2-28.8-64-64-64H204.8c-35.2 0-64 28.8-64 64V716.8c0 35.2 28.8 64 64 64zM105.6 678.4c0 22.4 19.2 41.6 41.6 41.6h227.2c19.2 0 38.4-9.6 48-22.4l67.2-83.2c12.8-16 28.8-22.4 48-22.4h332.8c22.4 0 41.6-19.2 41.6-41.6v-508.8c0-22.4-19.2-41.6-41.6-41.6H150.4c-22.4 0-41.6 19.2-41.6 41.6L105.6 678.4zM662.4 316.8l-128 128c-3.2 3.2-6.4 3.2-9.6 6.4-6.4 3.2-16 3.2-25.6 0-3.2-3.2-6.4-3.2-9.6-6.4l-128-128c-12.8-12.8-12.8-32 0-44.8 6.4-6.4 16-9.6 22.4-9.6s16 3.2 22.4 9.6l73.6 73.6v-220.8c0-19.2 12.8-32 32-32s32 12.8 32 32v220.8l73.6-73.6c12.8-12.8 32-12.8 44.8 0 12.8 12.8 12.8 32 0 44.8z"  horiz-adv-x="1024" />
      
      <glyph glyph-name="farenwu" unicode="&#59117;" d="M192 800h640c35.2 0 64-28.8 64-64v-704c0-35.2-28.8-64-64-64H192c-35.2 0-64 28.8-64 64V736c0 35.2 28.8 64 64 64zM224 736h576c19.2 0 32-12.8 32-32v-640c0-19.2-12.8-32-32-32H224c-19.2 0-32 12.8-32 32V704c0 19.2 12.8 32 32 32zM768 544c0-19.2-12.8-32-32-32h-192c-19.2 0-32 12.8-32 32s12.8 32 32 32h192c19.2 0 32-12.8 32-32zM323.2 489.6c-9.6 0-16 3.2-22.4 9.6l-67.2 67.2c-12.8 12.8-12.8 32 0 44.8s32 12.8 44.8 0l44.8-44.8 89.6 89.6c12.8 12.8 32 12.8 44.8 0s12.8-32 0-44.8l-112-112c-6.4-6.4-12.8-9.6-22.4-9.6zM768 352c0-19.2-12.8-32-32-32h-256c-19.2 0-32 12.8-32 32s12.8 32 32 32h256c19.2 0 32-12.8 32-32zM768 160c0-19.2-12.8-32-32-32h-256c-19.2 0-32 12.8-32 32s12.8 32 32 32h256c19.2 0 32-12.8 32-32zM288 416h64c19.2 0 32-12.8 32-32v-64c0-19.2-12.8-32-32-32H288c-19.2 0-32 12.8-32 32v64c0 19.2 12.8 32 32 32zM288 224h64c19.2 0 32-12.8 32-32v-64c0-19.2-12.8-32-32-32H288c-19.2 0-32 12.8-32 32v64c0 19.2 12.8 32 32 32z"  horiz-adv-x="1024" />
      
      <glyph glyph-name="qupigai" unicode="&#59118;" d="M192 800h640c35.2 0 64-28.8 64-64v-704c0-35.2-28.8-64-64-64H192c-35.2 0-64 28.8-64 64V736c0 35.2 28.8 64 64 64zM224 736h576c19.2 0 32-12.8 32-32v-640c0-19.2-12.8-32-32-32H224c-19.2 0-32 12.8-32 32V704c0 19.2 12.8 32 32 32zM256 608c0-19.2 12.8-32 32-32h160c19.2 0 32 12.8 32 32s-12.8 32-32 32H288c-19.2 0-32-12.8-32-32zM256 384c0-19.2 12.8-32 32-32h160c19.2 0 32 12.8 32 32s-12.8 32-32 32H288c-19.2 0-32-12.8-32-32zM256 160c0-19.2 12.8-32 32-32h160c19.2 0 32 12.8 32 32s-12.8 32-32 32H288c-19.2 0-32-12.8-32-32zM656 540.8c-9.6 0-16 3.2-22.4 9.6l-44.8 44.8c-12.8 12.8-12.8 32 0 44.8s32 12.8 44.8 0l22.4-22.4 44.8 44.8c12.8 12.8 32 12.8 44.8 0s12.8-32 0-44.8l-67.2-67.2c-6.4-6.4-16-9.6-22.4-9.6zM656 304c-9.6 0-16 3.2-22.4 9.6l-44.8 44.8c-12.8 12.8-12.8 32 0 44.8s32 12.8 44.8 0l22.4-22.4 44.8 44.8c12.8 12.8 32 12.8 44.8 0s12.8-32 0-44.8l-67.2-67.2c-6.4-6.4-16-9.6-22.4-9.6zM697.6 163.2l22.4 22.4c12.8 12.8 12.8 32 0 44.8s-32 12.8-44.8 0l-22.4-22.4-22.4 22.4c-12.8 12.8-32 12.8-44.8 0s-12.8-32 0-44.8l22.4-22.4-22.4-22.4c-12.8-12.8-12.8-32 0-44.8 6.4-6.4 16-9.6 22.4-9.6s16 3.2 22.4 9.6l22.4 22.4 22.4-22.4c6.4-6.4 16-9.6 22.4-9.6s16 3.2 22.4 9.6c12.8 12.8 12.8 32 0 44.8l-22.4 22.4z"  horiz-adv-x="1024" />
      
      <glyph glyph-name="tiaosheng" unicode="&#59116;" d="M512 816.355556c-204.8 0-369.777778-164.977778-369.777778-369.777778v-91.022222c0-17.066667 11.377778-28.444444 28.444445-28.444445s28.444444 11.377778 28.444444 28.444445V446.577778c0 170.666667 142.222222 312.888889 312.888889 312.888889s312.888889-142.222222 312.888889-312.888889v-91.022222c0-17.066667 11.377778-28.444444 28.444444-28.444445s28.444444 11.377778 28.444445 28.444445V446.577778c0 204.8-164.977778 369.777778-369.777778 369.777778zM517.688889 588.8m-85.333333 0a85.333333 85.333333 0 1 1 170.666666 0 85.333333 85.333333 0 1 1-170.666666 0ZM847.644444 253.155556c-164.977778 34.133333-238.933333 136.533333-261.688888 176.355555l-5.688889 5.688889c-5.688889 22.755556-28.444444 39.822222-51.2 39.822222h-34.133334c-28.444444 0-45.511111-17.066667-51.2-39.822222l-5.688889-5.688889c-22.755556-39.822222-96.711111-142.222222-261.688888-176.355555-17.066667-5.688889-22.755556-17.066667-22.755556-34.133334 0-11.377778 17.066667-22.755556 28.444444-22.755555h5.688889c125.155556 22.755556 204.8 85.333333 250.311111 136.533333v-278.755556c0-17.066667 17.066667-34.133333 34.133334-34.133333s34.133333 17.066667 34.133333 34.133333v142.222223h11.377778v-233.244445c0-17.066667 17.066667-34.133333 34.133333-34.133333s34.133333 17.066667 34.133334 34.133333V338.488889c45.511111-51.2 125.155556-113.777778 250.311111-136.533333h5.688889c11.377778 0 22.755556 11.377778 28.444444 22.755555 0 11.377778-5.688889 22.755556-22.755556 28.444445z"  horiz-adv-x="1024" />
      
      <glyph glyph-name="dianzan3" unicode="&#59108;" d="M900.266667 494.933333c-21.333333 25.6-51.2 38.4-81.066667 38.4h-200.533333V652.8c0 81.066667-64 149.333333-145.066667 149.333333-12.8 0-25.6-8.533333-29.866667-17.066666L298.666667 460.8H217.6c-59.733333 0-115.2-46.933333-123.733333-106.666667V76.8c8.533333-59.733333 59.733333-106.666667 119.466666-102.4h554.666667c55.466667 0 98.133333 38.4 106.666667 93.866667l51.2 345.6c8.533333 25.6-4.266667 55.466667-25.6 81.066666z m-89.6-426.666666c-4.266667-21.333333-21.333333-38.4-46.933334-38.4H354.133333v384l140.8 320c34.133333-8.533333 59.733333-42.666667 59.733334-81.066667v-153.6c0-17.066667 12.8-34.133333 34.133333-34.133333h230.4c12.8 0 25.6-4.266667 34.133333-17.066667 8.533333-8.533333 12.8-21.333333 8.533334-34.133333L810.666667 68.266667z"  horiz-adv-x="1024" />
      
      <glyph glyph-name="tisheng" unicode="&#59109;" d="M260.266667 273.066667v-277.333334H98.133333v149.333334l162.133334 128z m136.533333 85.333333l51.2-59.733333c0-4.266667 4.266667-4.266667 4.266667-8.533334l12.8-12.8c4.266667-8.533333 12.8-12.8 21.333333-17.066666v-264.533334H328.533333V298.666667l68.266667 59.733333z m320 64v-426.666667H554.666667v298.666667l162.133333 128z m226.133333 149.333333v-580.266666h-162.133333V443.733333l162.133333 128z m0 200.533334c4.266667 0 12.8-4.266667 17.066667-8.533334 4.266667-4.266667 8.533333-12.8 8.533333-21.333333v-8.533333l-8.533333-115.2c0-17.066667-17.066667-29.866667-29.866667-25.6-17.066667 0-29.866667 17.066667-25.6 29.866666l4.266667 25.6L512 341.333333c0-4.266667-4.266667-4.266667-8.533333-8.533333-12.8-8.533333-29.866667-12.8-42.666667-4.266667-4.266667 4.266667-8.533333 4.266667-12.8 8.533334l-4.266667 4.266666-55.466666 68.266667-273.066667-221.866667c-17.066667-12.8-42.666667-12.8-55.466667 4.266667-12.8 17.066667-12.8 42.666667 4.266667 55.466667l302.933333 243.2c8.533333 8.533333 17.066667 12.8 21.333334 12.8 12.8 4.266667 29.866667 0 38.4-12.8l59.733333-72.533334 366.933333 298.666667h-21.333333c-17.066667 0-29.866667 12.8-29.866667 29.866667 0 17.066667 12.8 29.866667 29.866667 29.866666H938.666667c0-4.266667 4.266667-4.266667 4.266666-4.266666z"  horiz-adv-x="1024" />
      
      <glyph glyph-name="yundongxiangqingmoren" unicode="&#59110;" d="M833.163636 844.8H232.727273c-41.890909 0-79.127273-32.581818-79.127273-79.127273v-768c0-41.890909 32.581818-79.127273 79.127273-79.127272h595.781818c41.890909 0 79.127273 32.581818 79.127273 79.127272V765.672727c0 46.545455-32.581818 79.127273-74.472728 79.127273z m4.654546-847.127273c0-4.654545-4.654545-9.309091-9.309091-9.309091H232.727273c-4.654545 0-9.309091 4.654545-9.309091 9.309091V765.672727c0 4.654545 4.654545 9.309091 9.309091 9.309091h595.781818c9.309091 0 9.309091-4.654545 9.309091-9.309091v-768zM660.945455 290.909091H363.054545c-18.618182 0-37.236364-13.963636-37.236363-37.236364s13.963636-37.236364 37.236363-37.236363h297.89091c18.618182 0 37.236364 13.963636 37.236363 37.236363s-18.618182 37.236364-37.236363 37.236364zM512 160.581818H363.054545c-18.618182 0-37.236364-13.963636-37.236363-37.236363s13.963636-37.236364 37.236363-37.236364H512c18.618182 0 37.236364 13.963636 37.236364 37.236364s-18.618182 37.236364-37.236364 37.236363zM698.181818 649.309091H372.363636c-18.618182 0-32.581818-13.963636-32.581818-32.581818v-186.181818c0-18.618182 13.963636-37.236364 37.236364-37.236364h325.818182c18.618182 0 37.236364 13.963636 37.236363 37.236364V616.727273c-4.654545 18.618182-23.272727 32.581818-41.890909 32.581818z m-32.581818-186.181818H409.6V579.490909h256v-116.363636z"  horiz-adv-x="1024" />
      
      <glyph glyph-name="shujugailanmoren" unicode="&#59111;" d="M512-76.8c-256 0-460.8 204.8-460.8 460.8 0 121.018182 46.545455 237.381818 134.981818 325.818182 41.890909 41.890909 93.090909 79.127273 148.945455 102.4 18.618182 9.309091 37.236364 0 46.545454-18.618182 9.309091-18.618182 0-37.236364-18.618182-46.545455-46.545455-18.618182-93.090909-51.2-130.327272-83.781818-74.472727-74.472727-116.363636-172.218182-116.363637-279.272727 0-214.109091 176.872727-390.981818 390.981819-390.981818 102.4 0 204.8 41.890909 279.272727 116.363636 37.236364 37.236364 65.163636 79.127273 83.781818 125.672727 9.309091 18.618182 27.927273 27.927273 46.545455 18.618182 18.618182-9.309091 27.927273-27.927273 18.618181-46.545454-18.618182-55.854545-55.854545-107.054545-97.745454-148.945455-88.436364-88.436364-204.8-134.981818-325.818182-134.981818zM940.218182 346.763636H512c-18.618182 0-37.236364 13.963636-37.236364 37.236364V812.218182c0 18.618182 13.963636 37.236364 37.236364 37.236363 256 0 460.8-204.8 460.8-460.8 0-23.272727-13.963636-41.890909-32.581818-41.890909z m-390.981818 69.818182h353.745454c-18.618182 186.181818-167.563636 339.781818-353.745454 353.745455v-353.745455z"  horiz-adv-x="1024" />
      
      <glyph glyph-name="paihangmoren" unicode="&#59112;" d="M916.945455 374.690909h-242.036364V765.672727c0 18.618182-13.963636 37.236364-37.236364 37.236364h-279.272727c-13.963636 0-32.581818-13.963636-32.581818-37.236364v-223.418182H83.781818c-18.618182 0-37.236364-13.963636-37.236363-37.236363v-512c0-18.618182 13.963636-37.236364 37.236363-37.236364h833.163637c18.618182 0 37.236364 13.963636 37.236363 37.236364v339.781818c0 27.927273-18.618182 41.890909-37.236363 41.890909zM605.090909 733.090909v-698.181818H395.636364v698.181818H605.090909zM121.018182 477.090909H325.818182v-442.181818H121.018182V477.090909zM884.363636 34.909091h-209.454545v269.963636H884.363636v-269.963636z"  horiz-adv-x="1024" />
      
      <glyph glyph-name="yundongxiangqingxuanzhong" unicode="&#59113;" d="M833.163636 844.8H232.727273c-41.890909 0-79.127273-32.581818-79.127273-79.127273v-768c0-41.890909 32.581818-79.127273 79.127273-79.127272h595.781818c41.890909 0 79.127273 32.581818 79.127273 79.127272V765.672727c0 46.545455-32.581818 79.127273-74.472728 79.127273z m4.654546-847.127273c0-4.654545-4.654545-9.309091-9.309091-9.309091H232.727273c-4.654545 0-9.309091 4.654545-9.309091 9.309091V765.672727c0 4.654545 4.654545 9.309091 9.309091 9.309091h595.781818c9.309091 0 9.309091-4.654545 9.309091-9.309091v-768zM660.945455 290.909091H363.054545c-18.618182 0-37.236364-13.963636-37.236363-37.236364s13.963636-37.236364 37.236363-37.236363h297.89091c18.618182 0 37.236364 13.963636 37.236363 37.236363s-18.618182 37.236364-37.236363 37.236364zM512 160.581818H363.054545c-18.618182 0-37.236364-13.963636-37.236363-37.236363s13.963636-37.236364 37.236363-37.236364H512c18.618182 0 37.236364 13.963636 37.236364 37.236364s-18.618182 37.236364-37.236364 37.236363zM698.181818 649.309091H372.363636c-18.618182 0-32.581818-13.963636-32.581818-32.581818v-186.181818c0-18.618182 13.963636-37.236364 37.236364-37.236364h325.818182c18.618182 0 37.236364 13.963636 37.236363 37.236364V616.727273c-4.654545 18.618182-23.272727 32.581818-41.890909 32.581818z"  horiz-adv-x="1024" />
      
      <glyph glyph-name="shujugailanxuanzhong" unicode="&#59114;" d="M921.6 253.672727c-18.618182 9.309091-37.236364 0-46.545455-18.618182-18.618182-46.545455-46.545455-88.436364-83.781818-125.672727-74.472727-74.472727-172.218182-116.363636-279.272727-116.363636-214.109091 0-390.981818 176.872727-390.981818 390.981818 0 102.4 41.890909 204.8 116.363636 279.272727 37.236364 37.236364 79.127273 65.163636 125.672727 83.781818 18.618182 9.309091 27.927273 27.927273 18.618182 46.545455-9.309091 13.963636-27.927273 23.272727-46.545454 18.618182C279.272727 788.945455 228.072727 751.709091 186.181818 709.818182c-88.436364-88.436364-134.981818-204.8-134.981818-325.818182 0-256 204.8-460.8 460.8-460.8 121.018182 0 237.381818 46.545455 325.818182 134.981818 41.890909 41.890909 79.127273 93.090909 102.4 148.945455 4.654545 18.618182-4.654545 37.236364-18.618182 46.545454zM512 844.8c-18.618182 0-37.236364-13.963636-37.236364-37.236364V384c0-18.618182 13.963636-37.236364 37.236364-37.236364h428.218182c18.618182 0 37.236364 13.963636 37.236363 37.236364-4.654545 256-209.454545 460.8-465.454545 460.8z"  horiz-adv-x="1024" />
      
      <glyph glyph-name="paihangxuanzhong" unicode="&#59115;" d="M916.945455 374.690909h-242.036364V765.672727c0 18.618182-13.963636 37.236364-37.236364 37.236364h-279.272727c-13.963636 0-32.581818-13.963636-32.581818-37.236364v-223.418182H83.781818c-18.618182 0-37.236364-13.963636-37.236363-37.236363v-512c0-18.618182 13.963636-37.236364 37.236363-37.236364h833.163637c18.618182 0 37.236364 13.963636 37.236363 37.236364v339.781818c0 27.927273-18.618182 41.890909-37.236363 41.890909zM605.090909 733.090909v-698.181818H395.636364v698.181818H605.090909z"  horiz-adv-x="1024" />
      
      <glyph glyph-name="gexingtongzhi" unicode="&#59107;" d="M915.911111 787.911111c-5.688889 5.688889-17.066667 11.377778-28.444444 5.688889L73.955556 492.088889c-11.377778-5.688889-17.066667-17.066667-17.066667-28.444445s11.377778-22.755556 22.755555-22.755555l409.6-79.644445 102.4-409.6c5.688889-11.377778 11.377778-22.755556 28.444445-22.755555 11.377778 0 22.755556 5.688889 28.444444 17.066667l278.755556 813.511111c0 11.377778-5.688889 22.755556-11.377778 28.444444zM625.777778 59.733333L546.133333 372.622222l108.088889 108.088889c11.377778 11.377778 11.377778 28.444444 0 39.822222s-28.444444 11.377778-39.822222 0l-113.777778-108.088889-312.888889 62.577778 659.911111 244.622222L625.777778 59.733333z"  horiz-adv-x="1024" />
      
      <glyph glyph-name="baogao" unicode="&#59105;" d="M811.885714 844.8H212.114286c-40.228571 0-76.8-32.914286-76.8-76.8v-768c0-40.228571 32.914286-76.8 76.8-76.8h596.114285c40.228571 0 76.8 32.914286 76.8 76.8v768c3.657143 40.228571-32.914286 76.8-73.142857 76.8zM318.171429 128c-21.942857 0-43.885714 18.285714-43.885715 43.885714 0 21.942857 18.285714 43.885714 43.885715 43.885715s43.885714-18.285714 43.885714-43.885715S343.771429 128 318.171429 128z m0 212.114286c-21.942857 0-43.885714 18.285714-43.885715 43.885714 0 21.942857 18.285714 43.885714 43.885715 43.885714s43.885714-18.285714 43.885714-43.885714c0-21.942857-18.285714-43.885714-43.885714-43.885714z m0 215.771428c-21.942857 0-43.885714 18.285714-43.885715 43.885715S296.228571 640 318.171429 640s43.885714-18.285714 43.885714-43.885714-18.285714-40.228571-43.885714-40.228572z m387.657142-420.571428h-256c-18.285714 0-32.914286 14.628571-32.914285 32.914285s14.628571 32.914286 32.914285 32.914286h256c18.285714 0 32.914286-14.628571 32.914286-32.914286s-14.628571-32.914286-32.914286-32.914285z m0 215.771428h-256c-18.285714 0-32.914286 14.628571-32.914285 32.914286s14.628571 32.914286 32.914285 32.914286h256c18.285714 0 32.914286-14.628571 32.914286-32.914286s-14.628571-32.914286-32.914286-32.914286z m0 212.114286h-256c-18.285714 0-32.914286 14.628571-32.914285 32.914286s14.628571 32.914286 32.914285 32.914285h256c18.285714 0 32.914286-14.628571 32.914286-32.914285s-14.628571-32.914286-32.914286-32.914286z"  horiz-adv-x="1024" />
      
      <glyph glyph-name="shipin1" unicode="&#59106;" d="M833.828571 800.914286H193.828571c-54.857143 0-98.742857-43.885714-98.742857-98.742857v-640c0-54.857143 43.885714-98.742857 98.742857-98.742858h640c54.857143 0 98.742857 43.885714 98.742858 98.742858V702.171429c-3.657143 54.857143-47.542857 98.742857-98.742858 98.742857z m-135.314285-446.171429l-288.914286-164.571428c-3.657143-3.657143-10.971429-3.657143-18.285714-3.657143s-10.971429 0-18.285715 3.657143c-10.971429 7.314286-18.285714 18.285714-18.285714 29.257142v329.142858c0 10.971429 7.314286 21.942857 18.285714 29.257142 10.971429 7.314286 21.942857 7.314286 32.914286 0l288.914286-164.571428c10.971429-7.314286 18.285714-18.285714 18.285714-29.257143s-3.657143-21.942857-14.628571-29.257143z"  horiz-adv-x="1024" />
      
      <glyph glyph-name="nan" unicode="&#59099;" d="M438.857143 442.514286A133.217524 133.217524 0 0 1 307.2 310.857143c0-34.133333 14.628571-68.266667 39.009524-92.647619 48.761905-48.761905 141.409524-48.761905 190.171428 0 24.380952 24.380952 39.009524 58.514286 39.009524 92.647619s-14.628571 68.266667-39.009524 92.647619c-29.257143 29.257143-63.390476 39.009524-97.523809 39.009524zM512 803.352381c-229.180952 0-419.352381-185.295238-419.352381-419.352381 0-229.180952 185.295238-419.352381 419.352381-419.352381 229.180952 0 419.352381 185.295238 419.352381 419.352381 0 229.180952-190.171429 419.352381-419.352381 419.352381z m258.438095-326.704762c0-19.504762-14.628571-39.009524-39.009524-39.009524s-34.133333 19.504762-34.133333 39.009524v34.133333l-82.895238-82.895238c24.380952-34.133333 34.133333-73.142857 34.133333-112.152381 0-53.638095-19.504762-107.27619-58.514285-146.285714s-92.647619-58.514286-146.285715-58.514286S331.580952 125.561905 292.571429 164.571429s-58.514286 92.647619-58.514286 146.285714S253.561905 418.133333 292.571429 457.142857c73.142857 73.142857 190.171429 78.019048 268.190476 19.504762l82.895238 82.895238h-34.133333c-19.504762 0-39.009524 14.628571-39.009524 39.009524s14.628571 39.009524 39.009524 39.009524H731.428571c19.504762 0 39.009524-14.628571 39.009524-39.009524v-121.904762z"  horiz-adv-x="1024" />
      
      <glyph glyph-name="tice" unicode="&#59100;" d="M654.628571 588.8c0-40.228571 32.914286-73.142857 73.142858-73.142857s73.142857 32.914286 73.142857 73.142857-32.914286 73.142857-73.142857 73.142857c-40.228571-3.657143-73.142857-32.914286-73.142858-73.142857zM852.114286 329.142857l-113.371429 135.314286c-3.657143 7.314286-10.971429 10.971429-18.285714 14.628571l-76.8 43.885715-25.6 131.657142L694.857143 804.571429c7.314286 18.285714 0 40.228571-14.628572 47.542857-18.285714 7.314286-40.228571 0-47.542857-14.628572L544.914286 676.571429c-3.657143-7.314286-3.657143-14.628571-3.657143-25.6l29.257143-146.285715-3.657143-3.657143-91.428572-164.571428-226.742857-332.8c-10.971429-18.285714-7.314286-40.228571 10.971429-51.2 18.285714-10.971429 40.228571-7.314286 51.2 10.971428l197.485714 292.571429 65.828572-36.571429 117.028571-98.742857V-54.857143c0-21.942857 14.628571-36.571429 36.571429-36.571428s36.571429 14.628571 36.571428 36.571428v190.171429c0 10.971429-3.657143 21.942857-14.628571 29.257143l-21.942857-29.257143 21.942857 29.257143-62.171429 51.2 149.942857 54.857142-10.971428 32.914286 10.971428-32.914286c10.971429 3.657143 18.285714 14.628571 21.942857 25.6 3.657143 10.971429 0 21.942857-7.314285 32.914286z m-128 40.228572l40.228571-47.542858-87.771428-32.914285 47.542857 80.457143zM336.457143 245.028571l14.628571-7.314285 21.942857 29.257143-14.628571 10.971428c-32.914286 21.942857-54.857143 58.514286-62.171429 102.4-7.314286 43.885714 3.657143 87.771429 29.257143 124.342857 29.257143 43.885714 80.457143 73.142857 131.657143 76.8h18.285714l-3.657142 36.571429h-18.285715C387.657143 614.4 329.142857 577.828571 292.571429 522.971429c-29.257143-43.885714-43.885714-98.742857-36.571429-149.942858 10.971429-54.857143 36.571429-98.742857 80.457143-128z"  horiz-adv-x="1060" />
      
      <glyph glyph-name="paihang" unicode="&#59101;" d="M916.945455 374.690909h-242.036364V765.672727c0 18.618182-13.963636 37.236364-37.236364 37.236364h-279.272727c-13.963636 0-32.581818-13.963636-32.581818-37.236364v-223.418182H83.781818c-18.618182 0-37.236364-13.963636-37.236363-37.236363v-512c0-18.618182 13.963636-37.236364 37.236363-37.236364h833.163637c18.618182 0 37.236364 13.963636 37.236363 37.236364v339.781818c0 27.927273-18.618182 41.890909-37.236363 41.890909zM121.018182 477.090909H325.818182v-442.181818H121.018182V477.090909z m274.618182 256H605.090909v-698.181818H395.636364v698.181818z m488.727272-698.181818h-209.454545v269.963636H884.363636v-269.963636z"  horiz-adv-x="1024" />
      
      <glyph glyph-name="wode" unicode="&#59102;" d="M837.818182 239.709091c-41.890909 41.890909-97.745455 65.163636-153.6 65.163636H339.781818c-55.854545 0-111.709091-23.272727-153.6-65.163636-41.890909-41.890909-65.163636-97.745455-65.163636-153.6v-83.781818c0-27.927273 18.618182-46.545455 46.545454-46.545455s46.545455 18.618182 46.545455 46.545455v83.781818a127.162182 127.162182 0 0 0 125.672727 125.672727h339.781818a127.162182 127.162182 0 0 0 125.672728-125.672727v-83.781818c0-27.927273 18.618182-46.545455 46.545454-46.545455s46.545455 18.618182 46.545455 46.545455v83.781818c0 55.854545-23.272727 111.709091-60.509091 153.6zM512 379.345455c121.018182 0 218.763636 97.745455 218.763636 218.763636S633.018182 812.218182 512 812.218182s-218.763636-93.090909-218.763636-214.109091 97.745455-218.763636 218.763636-218.763636z"  horiz-adv-x="1024" />
      
      <glyph glyph-name="nv" unicode="&#59103;" d="M512 803.352381c-229.180952 0-419.352381-185.295238-419.352381-419.352381 0-229.180952 185.295238-419.352381 419.352381-419.352381 229.180952 0 419.352381 185.295238 419.352381 419.352381 0 229.180952-190.171429 419.352381-419.352381 419.352381zM721.67619 310.857143c-39.009524-39.009524-92.647619-58.514286-146.285714-58.514286-43.885714 0-82.895238 14.628571-117.028571 39.009524v-4.876191l-53.638095-53.638095L468.114286 164.571429c14.628571-14.628571 14.628571-39.009524 0-53.638096-4.87619-4.87619-14.628571-9.752381-24.380953-9.752381s-19.504762 4.87619-29.257143 14.628572l-63.390476 63.390476-39.009524-39.009524c-4.87619-4.87619-14.628571-9.752381-24.380952-9.752381s-19.504762 4.87619-24.380952 9.752381c-14.628571 14.628571-14.628571 39.009524 0 53.638095l39.009524 39.009524-58.514286 58.514286c-14.628571 14.628571-14.628571 39.009524 0 53.638095s39.009524 14.628571 53.638095 0l58.514286-58.514286 53.638095 53.638096H414.47619c-29.257143 34.133333-43.885714 73.142857-43.885714 117.028571 0 53.638095 19.504762 107.27619 58.514286 146.285714 82.895238 82.895238 214.552381 82.895238 292.571428 0 82.895238-82.895238 82.895238-209.67619 0-292.571428zM575.390476 588.8A133.217524 133.217524 0 0 1 443.733333 457.142857c0-34.133333 14.628571-68.266667 39.009524-92.647619 53.638095-53.638095 136.533333-53.638095 190.171429 0s53.638095 136.533333 0 190.171429c-29.257143 24.380952-63.390476 34.133333-97.52381 34.133333z"  horiz-adv-x="1024" />
      
      <glyph glyph-name="richang" unicode="&#59104;" d="M778.971429 310.857143h109.714285v-36.571429h-109.714285zM778.971429 18.285714h109.714285v-36.571428h-109.714285zM596.114286 164.571429h292.571428v-36.571429h-292.571428zM387.657143 29.257143l438.857143 449.828571c14.628571 14.628571 14.628571 32.914286 3.657143 47.542857l-190.171429 234.057143c-10.971429 10.971429-25.6 7.314286-32.914286-7.314285l-32.914285-102.4c-3.657143-7.314286-7.314286-14.628571-10.971429-18.285715L512 592.457143c-7.314286-7.314286-14.628571-7.314286-25.6-7.314286l-117.028571 7.314286c-18.285714 0-32.914286-10.971429-36.571429-29.257143L248.685714 182.857143c0-7.314286-3.657143-14.628571-10.971428-18.285714l-73.142857-76.8c-7.314286-7.314286-10.971429-14.628571-10.971429-25.6V18.285714c0-21.942857 14.628571-36.571429 36.571429-36.571428h438.857142v36.571428h-256l14.628572 10.971429z"  horiz-adv-x="1060" />
      
      <glyph glyph-name="diancai_moren" unicode="&#59097;" d="M1.024 370.688c-0.512 4.608 0 9.728 1.024 14.336l92.16 406.528c1.024 4.608 3.584 9.216 6.144 13.312 9.728 19.456 25.088 36.864 44.544 49.664 19.968 12.8 43.52 19.456 67.584 19.456H803.84c2.048 0.512 4.096 0.512 6.144 0.512 2.048 0 4.096 0 6.144-0.512h157.184c2.048 0.512 4.608 0.512 6.656 0.512 23.552 0 42.496-18.944 42.496-42.496l-0.512-511.488c0-23.552-18.944-42.496-42.496-42.496-1.536 0-3.584 0-5.12 0.512l-141.312-0.512v-1.024c-130.048-9.216-233.472-116.224-237.056-247.808 0.512-3.584 0.512-7.168 0.512-11.264 0-68.608-55.296-123.904-123.904-123.904-58.88 0-108.032 40.96-120.832 96.256h-0.512c-7.168 31.744-10.752 64.512-10.752 97.28 0 50.176 8.192 99.84 25.088 147.456l-238.08 0.512c-2.048 0-4.096 0-6.656 0.512-40.448 1.536-79.872 22.528-102.912 59.392C5.12 317.44-1.024 344.064 1.024 370.688M938.496 788.48h-84.992l-0.512-425.984h84.992l0.512 425.984zM91.136 339.456c7.68-12.8 22.016-19.968 37.376-19.456l300.544-0.512c23.552 0 42.496-18.944 42.496-42.496 0-6.656-1.536-13.312-4.608-18.944l0.512-0.512c-17.408-32.256-29.696-66.56-36.352-102.912h-0.512s-5.632-23.04-5.632-67.072c0-34.816 6.656-67.072 6.656-67.072h0.512v-2.048c0-22.016 17.92-39.936 39.936-39.936s39.936 17.92 39.936 39.936v2.56h0.512s-0.512 33.28 6.144 67.584c3.072 14.848 6.656 28.16 10.24 38.912 35.84 109.568 125.952 194.56 238.592 223.232L768 788.48H212.48c-2.048 0-3.584 0-5.632 0.512-5.632-0.512-11.264-2.56-15.872-5.632-6.656-4.608-12.288-10.752-15.36-18.432L86.528 373.76h0.512c-3.584-11.776-2.048-24.064 4.096-34.304"  horiz-adv-x="1024" />
      
      <glyph glyph-name="zhongxinfasong" unicode="&#59098;" d="M903.529412 703.247059c0 18.070588-12.047059 30.117647-30.117647 30.117647s-30.117647-12.047059-30.117647-30.117647v-102.4c-18.070588 24.094118-42.164706 42.164706-54.211765 60.235294C716.8 733.364706 614.4 775.529412 512 775.529412 295.152941 775.529412 120.470588 600.847059 120.470588 384S295.152941-7.529412 512-7.529412c102.4 0 204.8 42.164706 277.082353 114.447059 12.047059 12.047059 12.047059 30.117647 0 42.164706s-30.117647 12.047059-42.164706 0c-60.235294-60.235294-144.564706-96.376471-234.917647-96.376471-180.705882 0-331.294118 150.588235-331.294118 331.294118S331.294118 715.294118 512 715.294118c90.352941 0 174.682353-36.141176 234.917647-96.376471 12.047059-12.047059 36.141176-42.164706 60.235294-66.258823H692.705882c-18.070588 0-30.117647-12.047059-30.117647-30.117648s12.047059-30.117647 30.117647-30.117647h192.752942s6.023529 0 6.023529 6.02353h6.023529s0 6.023529 6.02353 6.023529v6.02353 6.023529 186.729412z"  horiz-adv-x="1024" />
      
      <glyph glyph-name="diancai_shixin" unicode="&#59096;" d="M1.024 370.688c-0.512 4.608 0 9.728 1.024 14.336l92.16 406.528c1.024 4.608 3.584 9.216 6.144 13.312 9.728 19.456 25.088 36.864 44.544 49.664 19.968 12.8 43.52 19.456 67.584 19.456H803.84c2.048 0.512 4.096 0.512 6.144 0.512 2.048 0 4.096 0 6.144-0.512h157.184c2.048 0.512 4.608 0.512 6.656 0.512 23.552 0 42.496-18.944 42.496-42.496l-0.512-511.488c0-23.552-18.944-42.496-42.496-42.496-1.536 0-3.584 0-5.12 0.512l-141.312-0.512v-1.024c-130.048-9.216-233.472-116.224-237.056-247.808 0.512-3.584 0.512-7.168 0.512-11.264 0-68.608-55.296-123.904-123.904-123.904-58.88 0-108.032 40.96-120.832 96.256h-0.512c-7.168 31.744-10.752 64.512-10.752 97.28 0 50.176 8.192 99.84 25.088 147.456l-238.08 0.512c-2.048 0-4.096 0-6.656 0.512-40.448 1.536-79.872 22.528-102.912 59.392C5.12 317.44-1.024 344.064 1.024 370.688"  horiz-adv-x="1024" />
      
      <glyph glyph-name="dianzan_shixin-01" unicode="&#59095;" d="M1022.976 397.312c0.512-4.608 0-9.728-1.024-14.336l-92.16-406.528c-1.024-4.608-3.584-9.216-6.144-13.312-9.728-19.456-25.088-36.864-45.056-49.664-19.968-12.8-43.52-19.456-67.584-19.456v0.512H219.648c-2.048-0.512-4.096-0.512-6.144-0.512-2.048 0-4.096 0-6.144 0.512H50.176c-2.048-0.512-4.608-0.512-6.656-0.512-23.552 0-42.496 18.944-42.496 42.496l0.512 511.488c0 23.552 18.944 42.496 42.496 42.496 1.536 0 3.584 0 5.12-0.512l141.312 0.512V491.52c130.048 9.216 233.472 116.224 237.056 247.808-0.512 3.584-0.512 7.168-0.512 11.264 0 68.608 55.296 123.904 123.904 123.904 58.88 0 108.032-40.96 120.832-96.256h0.512c7.168-31.744 10.752-64.512 10.752-97.28 0-50.176-8.192-99.84-25.088-147.456l238.08-0.512c2.048 0 4.096 0 6.656-0.512 40.448-1.536 79.872-22.528 102.912-59.904 13.312-22.016 19.456-48.64 17.408-75.264"  horiz-adv-x="1024" />
      
      <glyph glyph-name="fanhui1" unicode="&#59034;" d="M378.368 384l400.896 400.896c24.576 24.576 24.576 64.512 0 89.088-24.576 24.576-64.512 24.576-89.088 0l-445.44-445.44c-24.576-24.576-24.576-64.512 0-89.088l445.952-445.952c24.576-24.576 64.512-24.576 89.088 0 24.576 24.576 24.576 64.512 0 89.088L378.368 384z"  horiz-adv-x="1024" />
      
      <glyph glyph-name="sousuo1" unicode="&#59035;" d="M1003.008-57.34400000000005l-171.008 182.784c69.12 83.456 107.52 187.392 107.52 296.96 0 257.024-208.896 465.92-465.92 465.92s-465.92-208.896-465.92-465.92 208.896-465.92 465.92-465.92c67.072 0 132.096 14.336 193.024 41.472 17.92 8.192 26.112 29.696 17.92 47.616-8.192 17.92-29.696 26.112-47.616 17.92-51.2-23.552-106.496-35.328-163.328-35.328-217.088 0-394.24 176.64-394.24 394.24 0 217.088 176.64 394.24 394.24 394.24s394.24-176.64 394.24-394.24c0-102.4-38.912-199.168-109.568-272.896-13.824-14.336-13.312-36.864 1.024-50.688 1.024-1.024 2.56-1.536 3.584-2.56 1.024-1.536 1.536-3.072 2.56-4.608l185.344-198.144c7.168-7.68 16.384-11.264 26.112-11.264 8.704 0 17.408 3.072 24.576 9.728 14.336 13.824 14.848 36.352 1.536 50.688z"  horiz-adv-x="1024" />
      
      <glyph glyph-name="dianzan2" unicode="&#59036;" d="M801.792-116.22400000000005h-1.536c-45.056 0.512-90.624 0.512-136.192 0.512h-69.12c-46.08 0-92.672 0-138.752 0.512-25.6 0.512-51.2 6.144-74.752 15.872-40.448 15.872-63.488 51.2-63.488 96.768v172.032c0 95.232 0 190.976 1.024 286.208 0 26.112 16.896 50.176 31.232 62.976C404.992 569.344 464.384 631.808 489.472 716.8c7.168 23.552 9.728 49.664 12.288 77.312 5.632 54.784 40.96 90.624 88.576 90.624 18.432 0 37.376-5.632 55.296-16.384 36.864-22.016 60.928-56.832 74.752-105.984 21.504-78.336 10.752-154.112-1.536-219.136-2.56-15.36 8.704-29.184 24.064-29.184H901.12c27.136 0 66.56-3.584 90.624-32.768 17.408-21.504 22.528-50.176 14.848-88.064-22.528-116.736-50.176-234.496-76.8-344.064-8.192-34.304-22.016-66.048-35.328-96.768l-5.632-13.312c-14.336-35.84-45.568-55.296-87.04-55.296zM122.88-104.96000000000004h-14.336c-52.224 0-95.232 43.008-95.232 95.232V414.72c0 52.224 43.008 95.232 95.232 95.232H122.88c52.224 0 95.232-43.008 95.232-95.232v-423.936c0.512-52.736-42.496-95.744-95.232-95.744z"  horiz-adv-x="1024" />
      
      <glyph glyph-name="langdujilu" unicode="&#59037;" d="M758.272-108.03200000000004c-155.136 0-281.088 125.952-281.088 281.088s125.952 281.088 281.088 281.088 281.088-125.952 281.088-281.088c0-155.136-125.952-281.088-281.088-281.088z m0 492.032c-116.224 0-210.944-94.208-210.944-210.944 0-116.224 94.208-210.944 210.944-210.944 116.224 0 210.944 94.208 210.944 210.944 0 116.736-94.72 210.944-210.944 210.944z m104.96-263.68h-122.368c-19.456 0-34.816 15.872-34.816 34.816v105.472c0 19.456 15.872 35.328 35.328 35.328s35.328-15.872 35.328-35.328v-70.144h87.552c19.456 0 35.328-15.872 34.816-35.328-1.024-18.944-16.896-34.816-35.84-34.816zM266.24 348.672h70.144c19.456 0 35.328-15.872 35.328-35.328 0-19.456-15.872-35.328-35.328-35.328H266.24c-19.456 0-35.328 15.872-35.328 35.328 0 19.968 15.872 35.328 35.328 35.328z m0 281.6h351.232c19.456 0 35.328-15.872 35.328-35.328 0-19.456-15.872-35.328-35.328-35.328H266.24c-19.456 0-35.328 15.872-35.328 35.328 0 19.456 15.872 35.328 35.328 35.328z m562.176-100.352c-19.456 0-34.816 15.872-34.816 34.816V764.928c0.512 22.016-16.384 39.936-38.4 40.96H129.024c-22.016-0.512-38.912-18.944-38.4-40.448v-762.88c-0.512-22.016 16.896-39.936 38.4-40.448h312.832c19.456 0 35.328-15.872 35.328-35.328 0-19.456-15.872-35.328-35.328-35.328H129.024C68.608-107.51999999999998 19.968-57.855999999999995 20.48 2.5599999999999454V764.928C19.968 825.856 68.608 875.52 129.024 876.032h625.664c60.416-0.512 109.056-50.176 108.544-110.592v-200.192c0.512-19.968-15.36-35.328-34.816-35.328zM441.856-123.39200000000005H129.024C59.904-122.88 4.608-66.048 5.12 2.5599999999999454V764.928C4.608 834.048 59.904 890.368 129.024 891.392h625.664c69.12-0.512 124.416-57.344 123.904-126.464v-200.192c0-27.648-22.528-50.176-50.176-50.688h-0.512c-27.648 0-50.176 22.528-50.176 50.176V764.928c0.512 13.824-10.24 25.088-23.552 25.6H129.024c-12.8-0.512-23.552-11.264-23.04-24.576v-762.88c-0.512-13.824 10.24-24.576 23.552-25.088h312.32c27.648 0 50.688-22.528 50.688-50.688s-22.528-50.688-50.688-50.688zM754.688 860.672H129.024C77.312 860.16 35.328 817.152 35.84 765.44v-762.88c-0.512-52.224 41.472-94.72 93.696-95.232h312.832c10.752 0 19.968 8.704 19.968 19.968 0 10.752-8.704 19.968-19.968 19.968H129.024c-30.72 1.024-54.784 26.112-53.76 56.32V765.44c-1.024 30.208 23.04 55.296 53.248 56.32h627.2c30.208-1.024 54.272-26.624 53.248-56.832v-199.68c0-10.752 8.704-19.456 19.456-19.456v-7.168 7.168c10.752 0 19.456 8.704 19.456 19.968V764.928c0.512 52.224-40.96 95.232-93.184 95.744z m3.584-984.064c-79.36 0-153.6 30.72-209.408 86.528-55.808 55.808-87.04 130.56-87.04 209.408 0 163.328 133.12 296.448 296.448 296.448s296.448-133.12 296.448-296.448c0-162.816-133.12-295.936-296.448-295.936z m0 562.176c-0.512 0-0.512 0 0 0-146.432 0-265.728-119.296-265.728-265.728 0-146.432 119.296-265.728 265.728-265.728 146.432 0 265.728 119.296 265.728 265.728 0 71.168-27.648 137.728-77.824 187.904-50.688 50.176-117.248 77.824-187.904 77.824z m0-492.032c-124.928 0-226.304 101.376-226.304 226.304 0 124.928 101.376 226.304 226.304 226.304 124.928 0 226.304-101.376 226.304-226.304 0-60.416-23.552-117.248-66.048-159.744-43.008-43.008-99.84-66.56-160.256-66.56z m0 421.888c-107.52 0-195.584-87.552-195.584-195.584s87.552-195.584 195.584-195.584c52.224 0 101.376 20.48 138.24 57.344 36.864 36.864 57.344 86.016 57.344 138.24 0 108.032-88.064 195.584-195.584 195.584v15.36-15.36z m104.96-263.68h-122.368c-27.648 0-50.176 22.528-50.176 50.176v105.472c0 27.648 22.528 50.688 50.688 50.688 27.648 0 50.688-22.528 50.688-50.688v-54.784h72.192c28.16 0 50.688-23.04 50.176-50.688-1.024-27.648-23.552-50.176-51.2-50.176z m0 30.72c10.752 0 19.968 8.704 19.968 19.968 0 10.752-8.704 19.968-19.968 19.968h-102.912V261.12c0 10.752-8.704 19.968-19.968 19.968-10.752 0-19.968-8.704-19.968-19.968v-105.472c0-10.752 8.704-19.456 19.456-19.456h123.392zM336.896 263.168H266.24c-27.648 0-50.688 22.528-50.688 50.688 0 27.648 22.528 50.688 50.688 50.688h70.656c27.648 0 50.688-22.528 50.688-50.688-0.512-28.16-23.04-50.688-50.688-50.688zM266.24 333.312c-10.752 0-19.968-8.704-19.968-19.968 0-10.752 8.704-19.968 19.968-19.968h70.656c10.752 0 19.968 8.704 19.968 19.968 0 10.752-8.704 19.968-19.968 19.968H266.24z m0 210.944c-13.312 0-26.112 5.12-35.84 14.848-9.728 9.728-14.848 22.016-14.848 35.84 0 27.648 22.528 50.688 50.688 50.688h351.232c27.648 0 50.688-22.528 50.688-50.688 0-27.648-22.528-50.688-50.688-50.688H266.24z m0 70.656c-10.752 0-19.968-8.704-19.968-19.968 0-10.752 8.704-19.968 19.968-19.968h351.232c10.752 0 19.968 8.704 19.968 19.968 0 10.752-8.704 19.968-19.968 19.968H266.24z"  horiz-adv-x="1058" />
      
      <glyph glyph-name="bofang2" unicode="&#59038;" d="M857.6 564.2239999999999L392.704 858.112C293.888 920.064 162.816 890.88 100.352 791.552c-21.504-33.792-32.768-72.704-32.768-112.64v-587.264c0-116.736 94.72-211.968 211.968-211.456 39.936 0 78.848 11.264 112.64 32.768l464.896 293.376c98.816 62.464 128.512 193.536 65.536 292.864-16.384 26.112-38.4 48.64-65.024 65.024z"  horiz-adv-x="1024" />
      
      <glyph glyph-name="shaixuan" unicode="&#59039;" d="M388.08 711.9300000000001v-203h-203v203h203m43 86h-289c-23.75 0-43-19.25-43-43v-289c0-23.75 19.25-43 43-43h289c23.75 0 43 19.25 43 43v289c0 23.75-19.26 43-43 43z m-43-512.04v-203h-203v203h203m43 86h-289c-23.75 0-43-19.25-43-43v-289c0-23.75 19.25-43 43-43h289c23.75 0 43 19.25 43 43v289c0 23.75-19.26 43-43 43z m382.18 340.04v-203h-203v203h203m43 86h-289c-23.75 0-43-19.25-43-43v-289c0-23.75 19.25-43 43-43h289c23.75 0 43 19.25 43 43v289c0 23.75-19.25 43-43 43zM910.05 57.07000000000005l-51.33 51.32c12.84 24.8 20.08 52.95 20.08 82.8 0 99.69-80.81 180.5-180.5 180.5s-180.5-80.81-180.5-180.5 80.81-180.5 180.5-180.5c32.74 0 63.45 8.72 89.92 23.96l49.7-49.71c9.92-9.92 22.99-14.87 36.07-14.87 13.07 0 26.14 4.95 36.06 14.87 19.83 19.84 19.83 52.29 0 72.13zM698.3 96.69000000000005c-52.11 0-94.5 42.39-94.5 94.5s42.39 94.5 94.5 94.5 94.5-42.39 94.5-94.5-42.39-94.5-94.5-94.5z"  horiz-adv-x="1024" />
      
      <glyph glyph-name="zanting1" unicode="&#59040;" d="M380.416 11.775999999999954c0-70.144-56.832-131.584-131.584-131.584S117.76-62.976 117.76 11.775999999999954V756.2239999999999C117.76 826.3679999999999 174.592 887.808 249.344 887.808s131.584-56.832 131.584-131.584v-744.448z m525.824 0c0-70.144-56.832-131.584-131.584-131.584-74.24 0-131.584 56.832-131.584 131.584V756.2239999999999c0 70.144 56.832 131.584 131.584 131.584 74.24 0 131.584-56.832 131.584-131.584v-744.448z"  horiz-adv-x="1024" />
      
      <glyph glyph-name="fenxiang3" unicode="&#59041;" d="M550.912 646.656l-250.88-250.88 71.68-71.68 250.88 250.88-71.68 71.68zM412.16 215.03999999999996c-21.504 0-39.936-14.336-45.568-34.816l-2.048-7.168a46.7968 46.7968 0 0 1 33.28-57.344l251.904-67.584c4.096-1.024 8.192-2.048 12.288-1.536 20.992 0 39.424 13.824 45.568 33.792l2.048 7.168c6.656 25.088-8.192 50.688-33.28 57.344l-251.904 67.584c-4.096 1.024-8.192 2.048-12.288 1.536v1.024zM233.472 358.91200000000003c70.144 0 126.464-56.832 126.464-126.464s-56.832-126.464-126.464-126.464-126.464 56.832-126.464 126.464 56.32 126.464 126.464 126.464m0 100.864C107.008 459.776 5.12 357.88800000000003 5.12 231.93600000000004s101.888-227.84 227.84-227.84S460.8 105.98400000000004 460.8 231.93600000000004 359.424 459.776 233.472 459.776z m430.592 329.728c41.984 0 75.776-33.792 75.776-75.776s-33.792-75.776-75.776-75.776-75.776 33.792-75.776 75.776c-0.512 41.472 33.792 75.776 75.776 75.776m0 101.376c-97.792 0-177.152-79.36-177.152-177.152s79.36-177.152 177.152-177.152 177.152 79.36 177.152 177.152S761.856 890.88 664.064 890.88z m152.064-709.632c55.808 0 101.376-45.568 101.376-101.376s-45.568-101.376-101.376-101.376-101.376 45.568-101.376 101.376 45.568 101.376 101.376 101.376m0 101.376c-112.128 0-202.752-90.624-202.752-202.752s90.624-202.752 202.752-202.752 202.752 90.624 202.752 202.752c0 112.128-90.624 202.752-202.752 202.752z"  horiz-adv-x="1024" />
      
      <glyph glyph-name="chahao" unicode="&#59042;" d="M596.992 384l400.896 400.896c24.576 24.576 24.576 64.512 0 89.088s-64.512 24.576-89.088 0l-445.44-445.44c-24.576-24.576-24.576-64.512 0-89.088l445.952-445.952c24.576-24.576 64.512-24.576 89.088 0 24.576 24.576 24.576 64.512 0 89.088L596.992 384zM25.6-17.408000000000015C1.024-41.98400000000004 1.024-81.91999999999996 25.6-106.49599999999998c24.576-24.576 64.512-24.576 89.088 0l445.952 445.952c24.576 24.576 24.576 64.512 0 89.088l-445.44 445.44C90.624 898.56 50.688 898.56 26.112 873.984s-24.576-64.512 0-89.088L427.008 384 25.6-17.408000000000015z"  horiz-adv-x="1024" />
      
      <glyph glyph-name="guanbi1" unicode="&#59043;" d="M869.376 26.624000000000024c-197.632-197.632-517.632-197.632-714.752 0-197.632 197.632-197.632 517.632 0 714.752 197.632 197.632 517.632 197.632 714.752 0 197.632-197.12 197.632-517.632 0-714.752z m-59.392 655.36C645.632 846.336 378.88 846.336 214.016 681.984s-164.352-431.104 0-595.968 431.104-164.352 595.968 0 164.352 431.616 0 595.968zM724.48 179.20000000000005l-7.68-7.68c-14.336-14.336-37.888-14.336-52.224 0L512 324.60799999999995l-148.992-148.992c-16.384-16.384-43.008-16.384-59.392 0-16.384 16.384-16.384 43.008 0 59.392L452.608 384 299.52 536.576c-14.336 14.336-14.336 37.888 0 52.224l7.68 7.68c14.336 14.336 37.888 14.336 52.224 0L512 443.392l148.992 148.992c16.896 16.384 43.52 15.872 59.392-1.024 15.872-16.384 15.872-41.984 0-58.368L571.392 384l152.576-152.576c14.848-14.336 14.848-37.888 0.512-52.224z"  horiz-adv-x="1025" />
      
      <glyph glyph-name="shangjiantou1" unicode="&#59044;" d="M177.152-128h1728L1042.432 896l-865.28-1024z"  horiz-adv-x="2048" />
      
      <glyph glyph-name="xiajiantou1" unicode="&#59045;" d="M1905.152 896H177.152l862.72-1024 865.28 1024z"  horiz-adv-x="2048" />
      
      <glyph glyph-name="xianxingshangjiantou" unicode="&#59046;" d="M512.512 517.6320000000001l400.896-400.896c24.576-24.576 64.512-24.576 89.088 0s24.576 64.512 0 89.088l-445.44 445.44c-24.576 24.576-64.512 24.576-89.088 0L22.016 205.312c-24.576-24.576-24.576-64.512 0-89.088 24.576-24.576 64.512-24.576 89.088 0l401.408 401.408z"  horiz-adv-x="1024" />
      
      <glyph glyph-name="xianxingxiajiantou" unicode="&#59047;" d="M512 249.856L111.104 650.752c-24.576 24.576-64.512 24.576-89.088 0s-24.576-64.512 0-89.088l445.44-445.44c24.576-24.576 64.512-24.576 89.088 0l445.952 445.952c24.576 24.576 24.576 64.512 0 89.088-24.576 24.576-64.512 24.576-89.088 0L512 249.856z"  horiz-adv-x="1024" />
      
      <glyph glyph-name="gantanhao" unicode="&#59048;" d="M512 891.873c280.494 0 507.873-227.379 507.873-507.873S792.494-123.873 512-123.873 4.127 103.506 4.127 384 231.506 891.873 512 891.873z m0-681.84c-42.476 0-76.913-34.427-76.913-76.913 0-42.476 34.437-76.913 76.913-76.913s76.913 34.437 76.913 76.913c0 42.486-34.437 76.913-76.913 76.913z m-2.212 60.129c36.588 0 66.243 29.665 66.243 66.242V645.55c0 36.588-29.655 66.243-66.243 66.243-36.587 0-66.242-29.666-66.242-66.243v-309.146c0-36.587 29.655-66.242 66.242-66.242z"  horiz-adv-x="1024" />
      
      <glyph glyph-name="dian" unicode="&#59049;" d="M9.251 384a15.71 15.71 0 1 1 201.1 0 15.71 15.71 0 1 1-201.1 0z m402.199 0a15.71 15.71 0 1 1 201.1 0 15.71 15.71 0 1 1-201.1 0z m402.199 0a15.71 15.71 0 1 1 201.1 0 15.71 15.71 0 1 1-201.1 0z"  horiz-adv-x="1024" />
      
      <glyph glyph-name="duihao" unicode="&#59050;" d="M0 384C0 666.765 229.235 896 512 896s512-229.235 512-512-229.235-512-512-512S0 101.235 0 384z m419.31-194.63a35.31 35.31 0 0 1 49.4-1.272L804.228 500.03a35.31 35.31 0 0 1-48.075 51.73L447.03 262.214 301.903 411.86a35.31 35.31 0 1 1-50.688-49.17l168.113-173.32z"  horiz-adv-x="1024" />
      
      <glyph glyph-name="wenhao" unicode="&#59051;" d="M528.896 888.832c279.04 0 505.344-226.304 505.344-505.344s-226.304-505.344-505.344-505.344-505.344 226.304-505.344 505.344C23.04 662.528 249.344 888.832 528.896 888.832z m0-77.824c-236.032 0-427.52-191.488-427.52-427.52s191.488-427.52 427.52-427.52 427.52 191.488 427.52 427.52-191.488 427.52-427.52 427.52z m10.24-626.176c21.504 0 38.912-17.408 38.912-38.912 0-21.504-17.408-38.912-38.912-38.912s-38.912 17.408-38.912 38.912c0 21.504 17.408 38.912 38.912 38.912z m0 470.528c119.808 0 190.976-110.08 155.648-202.752-11.776-30.208-27.648-54.272-51.712-80.896l-14.336-15.36-20.48-21.504c-22.016-23.552-29.696-37.888-29.696-56.832 0-21.504-17.408-38.912-38.912-38.912s-38.912 17.408-38.912 38.912c0 39.936 14.336 69.632 44.544 102.912l6.656 7.168c5.12 5.12 23.04 23.552 26.112 27.136 23.04 24.064 35.84 41.984 44.544 65.024 16.384 42.496-18.944 96.768-82.944 96.768-58.368 0-91.136-38.912-89.088-72.192l0.512-4.096c3.584-20.992-10.752-41.472-31.744-45.056-20.992-3.584-41.472 10.752-45.056 31.744v1.536C361.472 568.832 428.544 655.36 539.136 655.36z"  horiz-adv-x="1056" />
      
      <glyph glyph-name="shijian1" unicode="&#59052;" d="M512 892.416C230.912 892.416 3.584 665.088 3.584 384s227.84-508.416 508.416-508.416c281.088 0 508.416 227.84 508.416 508.416C1020.416 665.088 793.088 892.416 512 892.416z m0-924.672c-229.888 0-416.256 186.368-416.256 416.256S282.112 800.256 512 800.256s416.256-186.368 416.256-416.256-186.368-416.256-416.256-416.256zM558.08 402.944V661.504c0 25.6-20.48 46.08-46.08 46.08s-46.08-20.48-46.08-46.08V383.488c0-3.072 0.512-5.632 1.024-8.704 0.512-1.536 1.024-2.56 1.024-4.096l1.536-4.608c0.512-1.536 1.536-3.072 2.56-4.608 0.512-1.024 1.024-2.56 2.048-3.584 1.536-2.56 3.584-5.12 5.632-7.168l130.56-130.56c17.92-17.92 47.104-17.92 65.536 0 17.92 17.92 17.92 47.104 0 65.536l-117.76 117.248z"  horiz-adv-x="1024" />
      
      <glyph glyph-name="paixu" unicode="&#59053;" d="M754.012 358a59.832 59.832 0 0 0 40.055-15.402c24.663-22.223 26.722-60.323 4.6-85.097L557.154-12.976a60.125 60.125 0 0 0-4.6-4.621c-24.661-22.223-62.587-20.154-84.709 4.62L226.332 257.502A60.418 60.418 0 0 0 211 297.739C211 331.02 237.857 358 270.987 358h483.025zM557.155 778.976L798.668 508.5A60.418 60.418 0 0 0 814 468.261C814 434.98 787.143 408 754.013 408H270.988a59.832 59.832 0 0 0-40.055 15.402c-24.663 22.223-26.722 60.323-4.6 85.097l241.513 270.477a60.125 60.125 0 0 0 4.6 4.621c24.661 22.223 62.587 20.154 84.709-4.62z"  horiz-adv-x="1025" />
      
      <glyph glyph-name="bianji3" unicode="&#59054;" d="M485.333 704a32 32 0 0 0 3.072-63.85l-3.072-0.15H336a80 80 0 0 1-79.893-75.733L256 560v-373.333a80 80 0 0 1 75.733-79.894l4.267-0.106h373.333a80 80 0 0 1 79.894 75.733l0.106 4.267V336a32 32 0 0 0 63.851 3.072l0.15-3.072v-149.333a144 144 0 0 0-138.945-143.915l-5.056-0.085H336A144 144 0 0 0 192.085 181.61l-0.085 5.056V560a144 144 0 0 0 138.944 143.915L336 704h149.333z m331.67-40.021a32 32 0 0 0 2.197-42.838l-2.197-2.432-256-256a32 32 0 0 0-47.467 42.816l2.197 2.432 256.022 256a32 32 0 0 0 45.248 0z"  horiz-adv-x="1024" />
      
      <glyph glyph-name="jia1" unicode="&#59055;" d="M522.667 746.667C728.853 746.667 896 579.52 896 373.333S728.853 0 522.667 0 149.333 167.147 149.333 373.333 316.48 746.667 522.667 746.667z m0-64c-170.838 0-309.334-138.496-309.334-309.334S351.83 64 522.667 64 832 202.496 832 373.333 693.504 682.667 522.667 682.667z m0-126.486a32 32 0 0 0 31.829-28.736l0.17-3.264v-114.645h114.667a32 32 0 0 0 3.264-63.85l-3.264-0.171-114.666 0.021v-114.688a32 32 0 0 0-63.83-3.264l-0.17 3.243-0.022 114.688H376a32 32 0 0 0-3.264 63.808l3.264 0.17 114.667 0.043V524.181a32 32 0 0 0 32 32z"  horiz-adv-x="1024" />
      
      <glyph glyph-name="renyuan1" unicode="&#59056;" d="M512 282.624c-168.448 0-304.64 136.704-304.64 304.64S343.552 891.904 512 891.904s304.64-136.704 304.64-304.64-136.192-304.64-304.64-304.64z m0 507.904c-112.128 0-203.264-91.136-203.264-203.264S399.872 384 512 384s203.264 91.136 203.264 203.264c0 112.128-91.136 203.264-203.264 203.264zM867.84-123.904c-28.16 0-50.688 22.528-50.688 50.688 0 168.448-136.704 304.64-304.64 304.64s-304.64-136.704-304.64-304.64c0-28.16-22.528-50.688-50.688-50.688s-50.688 22.528-50.688 50.688c0 224.768 181.76 406.528 406.528 406.528s406.528-181.76 406.528-406.528c-1.024-28.16-23.552-50.688-51.712-50.688z"  horiz-adv-x="1024" />
      
      <glyph glyph-name="dakapinci" unicode="&#59057;" d="M512 884.736C235.52 884.736 11.264 660.48 11.264 384S235.52-116.736 512-116.736s500.736 224.256 500.736 500.736S788.48 884.736 512 884.736z m0-910.336c-226.304 0-409.6 183.296-409.6 409.6s183.296 409.6 409.6 409.6 409.6-183.296 409.6-409.6-183.296-409.6-409.6-409.6zM440.32 589.824c10.752 0 20.992-6.656 25.088-16.896l118.272-295.936 46.592 116.736c4.096 10.24 13.824 16.896 25.088 16.896h116.224c14.848 0 26.624-12.288 26.624-26.624 0-14.848-12.288-26.624-26.624-26.624h-98.304l-65.024-162.304c-4.096-10.24-13.824-16.896-25.088-16.896-10.752 0-20.992 6.656-25.088 16.896L440.32 491.008 393.728 373.76c-4.096-10.24-13.824-16.896-25.088-16.896H251.904c-14.848 0-26.624 12.288-26.624 26.624 0 14.848 12.288 26.624 26.624 26.624h98.304l65.024 162.304c4.096 10.752 13.824 17.408 25.088 17.408zM583.68 161.28c-17.92 0-33.792 10.752-40.448 27.136L440.32 445.952l-31.232-78.336c-6.656-16.384-22.528-27.136-40.448-27.136H251.904c-24.064 0-43.52 19.456-43.52 43.52s19.456 43.52 43.52 43.52h87.04l60.928 151.552c6.656 16.896 22.528 27.648 40.448 27.648s33.792-10.752 40.448-27.136l102.912-257.536 31.232 78.336c6.656 16.384 22.528 27.136 40.448 27.136h116.224c24.064 0 43.52-19.456 43.52-43.52s-19.456-43.52-43.52-43.52h-87.04l-60.928-151.552c-6.144-16.896-22.016-27.648-39.936-27.648zM440.32 535.552l133.632-334.336c1.536-3.584 5.632-6.144 9.728-6.144 4.096 0 8.192 2.56 9.728 6.656l69.12 172.544h109.568c5.632 0 10.24 4.608 10.24 10.24s-4.608 10.24-10.24 10.24H655.36c-4.096 0-8.192-2.56-9.728-6.656L583.68 232.448 450.048 566.784c-1.536 4.096-5.632 6.656-9.728 6.656-4.096 0-8.192-2.56-9.728-6.656L361.472 394.24H251.904c-5.632 0-10.24-4.608-10.24-10.24s4.608-10.24 10.24-10.24H368.64c4.096 0 8.192 2.56 9.728 6.656L440.32 535.552z"  horiz-adv-x="1024" />
      
      <glyph glyph-name="dianzan11" unicode="&#59058;" d="M195.072-80.896H92.16c-48.128 0-87.04 38.912-87.04 87.04V465.92c0 48.128 38.912 87.04 87.04 87.04h124.416c11.264 0 22.528-4.608 30.72-12.8 7.68-8.192 12.288-19.456 11.776-30.72l-20.992-549.376c-1.536-23.04-20.48-40.96-43.008-40.96zM92.16 468.48c-1.536 0-2.56-1.024-2.56-2.56v-459.776c0-1.536 1.024-2.56 2.56-2.56h62.464l17.92 464.896H92.16zM807.424-80.896H278.016L302.592 552.96h116.736l71.168 199.68c20.48 57.344 75.264 95.744 136.192 95.744 41.984 0 81.92-18.432 109.056-49.664 27.648-31.744 39.936-73.728 33.792-115.2L750.592 552.96h141.312c70.144 0 126.976-56.832 126.976-126.976l-1.024-9.216-83.456-375.808c-2.56-67.584-58.368-121.856-126.976-121.856z m-441.856 84.48h441.856c23.552 0 42.496 18.944 42.496 42.496l1.024 9.216L934.4 430.08c-2.048 21.504-19.968 38.4-42.496 38.4h-238.592l32.256 227.328c2.56 17.408-2.56 34.304-13.824 47.616-11.776 13.312-27.648 20.48-45.568 20.48-25.6 0-48.128-15.872-56.32-39.936l-91.648-256H383.488l-17.92-464.384z"  horiz-adv-x="1024" />
      
      <glyph glyph-name="pinglun1" unicode="&#59059;" d="M927.232 852.992H96.768C46.08 852.992 5.12 812.032 5.12 761.344v-606.208c0-50.688 40.96-91.648 91.648-91.648h218.624l168.96-138.24c8.192-6.656 18.432-10.24 28.672-10.24 10.24 0 20.48 3.584 28.672 10.24l169.984 138.24h215.552c50.688 0 91.648 40.96 91.648 91.648V761.344c0 50.688-41.472 91.648-91.648 91.648z m1.024-697.856c0-0.512-0.512-1.024-1.024-1.024h-231.424c-10.24 0-20.48-3.584-28.672-10.24l-154.112-124.928-153.088 124.928c-8.192 6.656-18.432 10.24-28.672 10.24H96.768c-0.512 0-1.024 0.512-1.024 1.024V761.344c0 0.512 0.512 1.024 1.024 1.024H926.72c0.512 0 1.024-0.512 1.024-1.024l0.512-606.208zM240.128 457.216c0-31.232 25.6-56.832 56.832-56.832s56.32 25.088 56.32 56.832-25.6 56.832-56.832 56.832-56.32-25.6-56.32-56.832zM456.704 457.216c0-31.232 25.6-56.832 56.832-56.832s56.832 25.6 56.832 56.832-25.6 56.832-56.832 56.832c-31.744-0.512-56.832-25.6-56.832-56.832zM673.28 457.216c0-31.232 25.6-56.832 56.832-56.832s56.832 25.6 56.832 56.832-25.6 56.832-56.832 56.832c-31.232-0.512-56.832-25.6-56.832-56.832z"  horiz-adv-x="1024" />
      
      <glyph glyph-name="guanlidaka" unicode="&#59060;" d="M512-109.056c-25.6 0-57.856 6.656-83.456 19.456L140.8 76.8c-45.056 32.256-76.8 83.456-76.8 140.8v332.8c0 57.856 31.744 109.056 83.456 140.8L435.2 857.6c51.2 25.6 109.056 25.6 160.256 0L883.2 691.2c45.056-32.256 76.8-83.456 76.8-140.8v-332.8c0-57.344-32.256-108.544-83.456-140.8L588.8-89.6c-19.456-12.8-51.2-19.456-76.8-19.456z m0 921.6c-19.456 0-32.256-6.656-51.2-12.8L179.2 633.344c-32.256-19.456-51.2-51.2-51.2-82.944v-332.8c0-32.256 19.456-64 51.2-83.456l288.256-166.4c32.256-19.456 64-19.456 96.256 0l288.256 166.4c32.256 19.456 51.2 51.2 51.2 83.456v332.8c0 32.256-19.456 64-51.2 82.944L563.2 799.744c-18.944 6.656-31.744 12.8-51.2 12.8z m0-620.544c-109.056 0-192 83.456-192 192S403.456 576 512 576s192-83.456 192-192-82.944-192-192-192z m0 320c-70.656 0-128-57.856-128-128s57.856-128 128-128 128 57.344 128 128-57.344 128-128 128zM512-116.736c-28.672 0-61.952 7.68-86.528 19.968l-289.28 166.912c-50.176 35.84-79.872 90.624-79.872 146.944v332.8c0 59.392 31.744 112.64 87.04 147.456L431.104 864.256c53.248 26.624 114.176 26.624 167.424 0l289.28-166.912c50.176-35.84 79.872-90.624 79.872-146.944v-332.8c0-59.392-31.744-112.64-87.04-147.456l-288.256-166.4c-22.016-14.848-57.344-20.48-80.384-20.48z m-367.104 200.192l287.744-166.4c22.528-11.264 52.736-17.92 79.36-17.92 22.528 0 53.76 5.632 72.704 17.92l288.256 166.912c50.176 31.232 79.36 80.384 79.36 134.144v332.8c0 51.2-27.136 101.376-73.216 134.144L591.36 850.944C542.208 875.52 487.936 875.52 438.784 850.944L151.04 684.544C100.864 653.312 71.68 604.16 71.68 550.4v-332.8c0-51.2 27.136-101.376 73.216-134.144z m370.176-137.728c-17.408 0-34.816 5.12-52.224 15.36L175.104 128c-33.792 20.48-54.784 54.784-54.784 89.6v332.8c0 34.816 20.992 69.632 54.784 89.6l282.112 166.912 1.024 0.512c4.096 1.536 7.68 2.56 11.264 4.096 13.824 5.12 26.112 9.216 42.496 9.216 16.384 0 28.672-4.096 42.496-9.216 3.584-1.024 7.168-2.56 11.264-4.096l1.536-0.512L855.04 640c33.792-20.48 55.296-54.784 55.296-89.6v-332.8c0-34.816-20.992-69.632-54.784-89.6l-288.256-166.4c-17.408-10.752-34.816-15.872-52.224-15.872z m-51.2 847.36L183.296 627.2c-29.184-17.408-47.616-47.104-47.616-76.8v-332.8c0-29.696 18.432-58.88 47.616-76.8L471.04-25.6c29.696-17.92 58.368-17.92 88.064 0l288.256 166.4c29.184 17.408 47.616 47.104 47.616 76.8v332.8c0 29.696-18.432 58.88-47.616 76.8l-287.232 165.888c-3.584 1.024-7.168 2.56-10.752 3.584-13.312 4.608-23.552 8.192-37.376 8.192s-24.064-3.584-37.376-8.192c-3.072-1.024-6.656-2.56-10.752-3.584zM512 184.32c-113.664 0-199.68 86.016-199.68 199.68s86.016 199.68 199.68 199.68 199.68-86.016 199.68-199.68-86.016-199.68-199.68-199.68z m0 384c-104.96 0-184.32-79.36-184.32-184.32s79.36-184.32 184.32-184.32 184.32 79.36 184.32 184.32-79.36 184.32-184.32 184.32z m0-320c-74.752 0-135.68 60.928-135.68 135.68S437.248 519.68 512 519.68s135.68-60.928 135.68-135.68-60.928-135.68-135.68-135.68z m0 256C445.44 504.32 391.68 450.56 391.68 384S445.44 263.68 512 263.68s120.32 53.76 120.32 120.32S578.56 504.32 512 504.32z"  horiz-adv-x="1024" />
      
      <glyph glyph-name="mianfei1" unicode="&#59061;" d="M227.84 373.76h78.848c4.608 20.48 7.168 41.472 8.704 64.512H227.84V373.76zM264.704 503.808c-10.752-13.824-23.04-27.648-36.352-40.96h97.792c10.752 11.264 22.016 27.136 30.72 40.96h-92.16zM670.208 512h58.368v-26.112h-58.368zM754.688 512h54.784v-26.112h-54.784zM728.576 465.92h-58.88c-0.512-9.728-2.048-18.944-4.608-27.648h63.488V465.92zM644.096 465.92h-53.248c-1.536-9.728-3.584-18.944-4.608-27.648h51.2c3.584 8.704 6.144 17.92 6.656 27.648zM885.248 656.384H140.8c-72.704 0-132.608-59.392-132.608-132.608V112.64h877.056c72.704 0 132.608 59.392 132.608 132.608V524.288c-0.512 72.704-59.904 132.096-132.608 132.096z m-327.68-238.08c3.584 17.92 8.192 45.056 10.752 67.072h10.24v0.512h66.048V512h-91.136v19.456h91.136v23.552h25.088v-23.552h58.368v23.552h26.112v-23.552H834.56V465.92h-79.872v-27.648h101.888s-0.512-6.144-0.512-9.216c-2.56-23.552-5.632-35.84-10.752-41.472-4.608-4.608-10.24-6.656-17.92-6.656-6.144-0.512-18.944-0.512-32.256 0.512 0 5.12-2.56 13.312-5.12 18.432 11.264-1.024 21.504-1.024 25.6-1.024s6.656 0.512 8.704 2.048c2.048 2.048 3.584 7.168 4.608 17.92h-74.24v-38.912h-26.112v38.912h-72.192c-10.24-17.92-28.672-34.304-60.416-47.104h219.648V271.36H788.48v76.8h-179.2v-79.36h-26.112v97.28c-9.728-3.584-20.992-6.656-33.28-9.728-2.56 6.144-9.216 16.384-13.824 20.992 46.08 10.752 72.704 24.576 88.576 40.96h-67.072zM452.096 225.28H390.144c-35.328 0-44.544 8.192-44.544 37.376v86.016h-16.896c-17.92-57.856-57.344-102.4-150.016-127.488-2.56 7.168-9.216 17.408-15.36 23.552 82.944 20.48 119.296 57.344 136.192 104.448H200.704V437.248c-7.168-6.144-13.824-11.264-22.016-16.896-4.096 6.656-12.8 15.36-19.456 19.968 50.176 33.28 87.04 78.848 106.496 115.2l30.208-5.632c-4.608-7.68-9.728-15.36-15.36-23.552h91.136l4.608 1.536 18.432-12.8c-9.728-17.408-24.064-36.864-37.888-53.248h108.032v-114.176H373.76v-86.016c0-11.264 3.072-12.8 19.456-12.8h56.832c15.872 0 18.432 7.168 19.968 51.2 6.144-4.608 17.408-9.216 25.6-10.752-4.096-50.688-12.288-64-43.52-64z m89.6-7.68c-2.048 6.656-7.168 17.408-11.264 23.552 115.2 11.264 145.92 36.864 158.208 91.648h27.136c-13.824-67.584-51.2-100.352-174.08-115.2z m304.128 0c-31.232 15.36-93.184 37.376-140.288 50.176l14.336 18.944c45.568-11.776 108.032-32.256 140.8-47.104l-14.848-22.016zM437.76 438.272H344.064c-2.048-22.528-4.608-44.032-8.704-64.512h101.888l0.512 64.512z"  horiz-adv-x="1024" />
      
      <glyph glyph-name="VIP" unicode="&#59062;" d="M708.096 320v-399.872h83.968v144.896c134.144-2.048 202.24 4.096 221.184 118.784 6.144 33.28-6.144 71.168-20.992 91.648-44.032 60.416-177.152 45.568-284.16 44.544z m84.48-186.88v116.736c62.464 2.048 128.512 8.704 139.264-41.472 17.408-83.968-69.632-76.8-139.264-75.264z m-245.76 184.832c1.024-132.096 1.024-265.216 2.048-397.824h81.92v399.872c-27.648-1.024-55.808-1.024-83.968-2.048z m158.72 535.04c-129.536-129.024-258.56-257.536-389.12-387.072V852.992H3.584c1.024-25.6 1.024-52.224 2.048-77.824H81.92v-854.016c310.784 311.296 621.056 621.056 931.84 931.84h-308.224z"  horiz-adv-x="1024" />
      
      <glyph glyph-name="shanchu3" unicode="&#59063;" d="M522.667 746.667A160.021 160.021 0 0 0 681.259 608H864a32 32 0 0 0 3.072-63.85L864 544h-53.333v-362.667A160 160 0 0 0 655.85 21.42l-5.184-0.086h-256A160 160 0 0 0 234.752 176.15l-0.085 5.184V544h-53.334a32 32 0 0 0-3.072 63.85l3.072 0.15h182.742a160.021 160.021 0 0 0 158.592 138.667z m224-202.667h-448v-362.667a96 96 0 0 1 91.477-95.893l4.523-0.107h256a96 96 0 0 1 95.893 91.478l0.107 4.522V544z m-224 138.667A96.043 96.043 0 0 1 429.056 608h187.243a96.043 96.043 0 0 1-93.632 74.667zM448 426.667a32 32 0 0 0 31.85-28.928l0.15-3.072V224a32 32 0 0 0-63.85-3.072L416 224V394.667a32 32 0 0 0 32 32z m149.333 0a32 32 0 0 0 31.851-28.928l0.15-3.072V224a32 32 0 0 0-63.851-3.072l-0.15 3.072V394.667a32 32 0 0 0 32 32z"  horiz-adv-x="1024" />
      
      <glyph glyph-name="shijian11" unicode="&#59064;" d="M522.752 746.496c-206.336 0-373.248-166.912-373.248-373.248S316.416 0 522.752 0s373.248 166.912 373.248 373.248-166.912 373.248-373.248 373.248z m0-64c171.008 0 309.248-138.752 309.248-309.248s-138.24-309.248-309.248-309.248-309.248 138.24-309.248 309.248 138.24 309.248 309.248 309.248zM634.368 375.296c17.92 0 31.744-14.336 31.744-32.256 0-16.384-12.288-30.208-28.672-31.744H513.536c-16.384 0-30.208 12.288-31.744 28.672V463.872c0 17.92 14.336 31.744 32.256 31.744 16.384 0 30.208-12.288 31.744-28.672V375.296h88.576z"  horiz-adv-x="1024" />
      
      <glyph glyph-name="bofang11" unicode="&#59065;" d="M522.667 746.667c-206.187 0-373.334-167.147-373.334-373.334S316.48 0 522.667 0 896 167.147 896 373.333 728.853 746.667 522.667 746.667z m0-64C693.504 682.667 832 544.17 832 373.333S693.504 64 522.667 64 213.333 202.496 213.333 373.333 351.83 682.667 522.667 682.667zM427.67 468.97v-206.442a53.333 53.333 0 0 1 82.389-44.736l159.018 103.232a53.333 53.333 0 0 1 0 89.472L510.06 513.706a53.333 53.333 0 0 1-82.39-44.735z m64-19.626l128.767-83.584-128.768-83.584V449.344z"  horiz-adv-x="1024" />
      
      <glyph glyph-name="liulan" unicode="&#59066;" d="M522.667 661.333c-179.2 0-333.59-117.333-372.48-280.618a32 32 0 0 1 0-14.827c38.933-163.221 193.28-280.555 372.48-280.555S856.235 202.667 895.125 365.91a32 32 0 0 1 0 14.848C856.235 544 701.845 661.333 522.645 661.333z m7.36-64.085c141.952-3.008 263.125-93.27 299.392-218.283l1.557-5.632-1.557-5.632c-36.907-127.168-161.643-218.368-306.774-218.368l-7.338 0.086c-141.952 3.008-263.126 93.248-299.392 218.24l-1.579 5.653 1.579 5.632c36.864 127.19 161.621 218.39 306.752 218.39l7.36-0.086zM522.667 469.333a96 96 0 1 1 0-192 96 96 0 0 1 0 192z m0-64a32 32 0 1 0 0-64 32 32 0 0 0 0 64z"  horiz-adv-x="1024" />
      
      <glyph glyph-name="saomiao" unicode="&#59072;" d="M181.333 277.333a32 32 0 0 0 31.851-28.928l0.15-3.072V160a96 96 0 0 1 91.477-95.893l4.522-0.107h85.334a32 32 0 0 0 3.072-63.85l-3.072-0.15h-85.334A160 160 0 0 0 149.42 154.816l-0.086 5.184v85.333a32 32 0 0 0 32 32z m682.667 0a32 32 0 0 0 31.85-28.928l0.15-3.072V160a160 160 0 0 0-154.816-159.915L736 0h-85.333a32 32 0 0 0-3.072 63.85l3.072 0.15H736a96 96 0 0 1 95.893 91.477L832 160v85.333a32 32 0 0 0 32 32zM754.24 416a32 32 0 0 0 3.093-63.85l-3.093-0.15H309.333a32 32 0 0 0-3.072 63.85l3.072 0.15H754.24zM394.667 746.667a32 32 0 0 0 3.072-63.851l-3.072-0.15h-85.334a96 96 0 0 1-95.893-91.477l-0.107-4.522V544a32 32 0 0 0-63.85-3.072l-0.15 3.072v42.667A160 160 0 0 0 304.15 746.58l5.184 0.086h85.334z m341.333 0A160 160 0 0 0 895.915 591.85l0.085-5.184v-85.334a32 32 0 0 0-63.85-3.072l-0.15 3.072v85.334a96 96 0 0 1-91.477 95.893l-4.523 0.107h-85.333a32 32 0 0 0-3.072 63.85l3.072 0.15H736z"  horiz-adv-x="1024" />
      
      <glyph glyph-name="zhanneixiaoxi" unicode="&#59073;" d="M528.363 746.667a32 32 0 0 0 31.85-28.928l0.15-3.072v-29.44C696.064 665.685 800.832 550.4 804.032 410.069l0.064-6.613V143.36h17.237a32 32 0 0 0 3.072-63.872l-3.072-0.15H224a32 32 0 0 0-3.072 63.873l3.072 0.128 10.667 0.021V403.456c0 149.483 115.2 272.085 261.696 283.797v27.414a32 32 0 0 0 32 32z m-8.96-122.496c-119.915 0-217.494-95.616-220.651-214.742l-0.085-5.973V143.36h441.429V403.456c0 121.899-98.816 220.715-220.715 220.715zM522.667 16.17a64 64 0 0 1 64 64c0 35.35-28.651 31.169-64 31.169s-64 4.181-64-31.168a64 64 0 0 1 64-64zM635.03 378.475a32 32 0 0 0 31.85-28.907l0.15-3.093v-119.616a32 32 0 0 0-63.851-3.072l-0.15 3.072V346.475a32 32 0 0 0 32 32z"  horiz-adv-x="1024" />
      
      <glyph glyph-name="diandiandian" unicode="&#59074;" d="M512-121.344c-66.048 0-116.736 50.688-116.736 116.736s50.688 116.736 116.736 116.736 116.736-50.688 116.736-116.736-50.688-116.736-116.736-116.736z m0 388.608c-66.048 0-116.736 50.688-116.736 116.736s50.688 116.736 116.736 116.736 116.736-50.688 116.736-116.736-50.688-116.736-116.736-116.736z m0 389.12C445.952 656.384 395.264 706.56 395.264 773.12S445.952 889.344 512 889.344s116.736-50.688 116.736-116.736-50.688-116.224-116.736-116.224z"  horiz-adv-x="1024" />
      
      <glyph glyph-name="shezhi1" unicode="&#59075;" d="M959.693 497.562c-4.915 20.275-23.04 34.56-44.135 34.713-31.59 0.205-60.979 17.255-76.748 44.544-15.975 27.597-15.872 61.901 0.204 89.6 10.548 18.176 7.476 41.011-7.475 55.603C778.6 773.53 713.523 812.083 643.43 833.638c-20.582 6.298-42.905-2.713-53.094-21.452a89.21 89.21 0 0 0-78.438-46.797c-33.588 0-64.052 18.585-79.412 48.537-9.728 18.893-31.795 28.365-52.53 22.528-70.657-19.916-136.654-57.036-190.823-107.417-16.333-15.207-19.303-39.629-7.066-58.061 18.944-28.518 20.07-64.614 2.97-94.208-17.101-29.542-50.227-46.95-84.327-44.288-22.118 1.638-41.932-12.8-47.206-34.509a467.436 467.436 0 0 1-13.21-110.233c0-37.12 4.455-74.24 13.21-110.234 5.171-21.402 25.549-36.25 47.206-34.509 34.1 2.714 67.226-14.694 84.327-44.288 17.1-29.593 15.974-65.69-2.97-94.208-12.237-18.432-9.267-42.854 7.066-58.06 54.17-50.33 120.115-87.501 190.822-107.418a44.964 44.964 0 0 1 12.39-1.741c16.59 0 32.359 9.114 40.141 24.269 15.412 29.952 45.824 48.537 79.412 48.537 32.716 0 62.77-17.92 78.438-46.796 10.189-18.74 32.512-27.75 53.094-21.453 70.093 21.504 135.168 60.109 188.11 111.616 14.95 14.54 18.022 37.427 7.474 55.603-16.076 27.648-16.179 62.003-0.204 89.6 15.77 27.238 45.21 44.34 76.748 44.544 21.095 0.154 39.22 14.438 44.135 34.714a466.601 466.601 0 0 1 0 219.648zM675.328 387.738c0-93.082-75.725-168.807-168.806-168.807s-168.807 75.725-168.807 168.807 75.725 168.755 168.807 168.755 168.806-75.674 168.806-168.755z"  horiz-adv-x="1024" />
      
      <glyph glyph-name="bangzhuyufankui" unicode="&#59076;" d="M516.506 845.978c-251.239 0-454.912-203.674-454.912-454.912 0-251.239 203.673-454.912 454.912-454.912 251.238 0 454.912 203.673 454.912 454.912 0 251.238-203.674 454.912-454.912 454.912z m30.72-738.15c0-16.948-13.773-30.72-30.72-30.72s-30.72 13.772-30.72 30.72V143.77c0 16.947 13.772 30.72 30.72 30.72s30.72-13.773 30.72-30.72v-35.943z m0 210.892v-74.598c0-16.948-13.773-30.72-30.72-30.72s-30.72 13.772-30.72 30.72v83.61c0 26.162 19.712 48.076 45.824 50.892 73.881 8.038 127.744 72.653 122.624 147.098-4.71 68.198-59.7 123.187-127.898 127.897-38.81 2.611-75.776-10.393-104.038-36.761-28.314-26.42-43.879-62.26-43.879-100.967 0-16.947-13.773-30.72-30.72-30.72s-30.72 13.773-30.72 30.72c0 55.091 23.091 108.237 63.386 145.869 40.857 38.144 94.157 57.088 150.17 53.146 98.61-6.81 178.124-86.324 184.934-184.935 7.219-104.499-66.1-195.533-168.243-211.251z"  horiz-adv-x="1024" />
      
      <glyph glyph-name="lianxiren" unicode="&#59077;" d="M506.624 380.826c126.054 0 228.66 102.553 228.66 228.659 0 126.054-102.554 228.659-228.66 228.659s-228.66-102.554-228.66-228.66c0-126.054 102.554-228.658 228.66-228.658z m116.992-23.808H400.384c-178.125 0-323.072-144.948-323.072-323.072v-14.234c0-45.414 36.966-82.38 82.38-82.38h704.513c45.414 0 82.38 36.966 82.38 82.38v14.234c0.052 178.124-144.844 323.072-322.969 323.072z"  horiz-adv-x="1024" />
      
      <glyph glyph-name="shouhuodizhi" unicode="&#59078;" d="M957.338 481.587l-91.75 91.187a75.126 75.126 0 0 1-52.89 21.76h-94.055v76.34c0 64.563-52.326 116.89-116.89 116.89H167.323c-64.564 0-116.89-52.327-116.89-116.89v-475.802c0-61.235 47.155-111.411 107.11-116.378 0.256 90.266 73.78 163.636 164.096 163.636 90.522 0 164.148-73.626 164.148-164.148h52.787c0 90.522 73.625 164.148 164.147 164.148s164.147-73.626 164.147-164.148h5.274c59.187 0 107.161 47.668 107.161 106.496V429.005c-0.05 19.712-7.936 38.605-21.964 52.582z m-522.19-37.427c0-23.091-18.79-41.933-41.932-41.933H229.478c-16.947 0-30.72 13.773-30.72 30.72s13.773 30.72 30.72 30.72h144.18V598.733c0 16.947 13.772 30.72 30.72 30.72s30.72-13.773 30.72-30.72V444.16z m466.638-74.394h-116.48c-23.092 0-41.933 18.79-41.933 41.933V519.834c0 16.947 13.773 30.72 30.72 30.72s30.72-13.773 30.72-30.72v-88.628h96.921c16.948 0 30.72-13.772 30.72-30.72s-13.721-30.72-30.668-30.72zM217.6 78.131a104.448 104.448 0 1 1 208.896 0 104.448 104.448 0 1 1-208.896 0zM598.272 78.131a104.448 104.448 0 1 1 208.896 0 104.448 104.448 0 1 1-208.896 0z"  horiz-adv-x="1024" />
      
      <glyph glyph-name="zaixiankefu" unicode="&#59079;" d="M634.522 197.171c1.024 5.018-4.864 8.448-8.756 5.12-18.534-15.923-58.777-45.21-104.243-45.21-46.797 0-92.518 17.306-112.435 25.908-4.3 1.894-8.806-2.355-7.168-6.759 8.14-22.22 35.38-68.864 119.962-68.864 84.53 0.052 106.803 60.775 112.64 89.805zM920.832 529.306C876.902 714.65 710.144 852.992 511.539 852.992c-198.553 0-365.363-138.342-409.293-323.686-37.376-6.708-65.74-39.27-65.74-78.592v-145.101c0-44.135 35.788-79.923 79.923-79.923 26.163 0 49.254 12.595 63.846 32 34.611-86.272 103.629-155.444 190.413-191.13 5.99-2.458 10.547 5.632 5.376 9.523-58.266 43.981-114.995 114.995-111.104 223.795 0 23.552 23.552 61.748 71.578 68.608 48.025 6.861 266.7 2.919 294.144 118.63 5.888 31.386 3.123 54.734 23.193 38.554 8.807-7.68 76.8-84.633 85.965-210.124 5.478-75.47-4.915-157.696-61.389-218.112-4.3-4.608 1.383-11.725 6.759-8.5 69.273 40.96 122.88 104.858 150.016 180.992 8.96-17.868 24.37-31.897 43.212-39.065-9.83-39.936-31.334-94.157-78.438-140.083-58.01-56.628-141.363-87.808-248.013-92.928-10.189 23.09-33.229 39.27-60.109 39.27-36.25 0-65.69-29.389-65.69-65.69 0-36.25 29.39-65.69 65.69-65.69 27.495 0 51.047 16.948 60.826 40.91 120.371 5.53 215.45 41.523 283.034 107.468 59.852 58.42 84.633 127.284 94.924 175.207 32.359 10.189 55.86 40.448 55.86 76.237V450.714c0.05 39.27-28.314 71.884-65.69 78.592zM505.446 727.603c-150.63 0-278.988-93.798-328.09-225.229a80.502 80.502 0 0 1-24.32 19.354c40.09 160.666 185.6 280.064 358.503 280.064s318.413-119.398 358.503-280.064a80.056 80.056 0 0 1-32.512-31.027c-45.67 137.523-177.05 236.902-332.084 236.902z"  horiz-adv-x="1024" />
      
      <glyph glyph-name="zhanghaoyuanquan" unicode="&#59080;" d="M908.698 319.334V686.9c0 20.224-15.514 37.376-36.506 40.243-67.891 9.216-217.549 37.888-336.384 120.372-14.797 10.24-34.714 10.393-49.613 0.204-48.384-33.075-164.71-101.273-322.048-119.142-21.453-2.458-37.683-19.712-37.683-40.346v-366.643S93.491 71.731 522.086-73.267c398.285 140.544 386.612 348.006 386.612 392.601z m-193.69 180.941L525.926 262.912c-8.14-10.24-20.275-16.384-33.33-16.947-0.615-0.051-1.23-0.051-1.895-0.051-12.39 0-24.218 5.12-32.768 14.13l-130.611 138.65a25.63 25.63 0 0 0 1.075 36.199c10.291 9.677 26.521 9.216 36.198-1.075L490.291 300.39 674.97 532.224a25.63 25.63 0 0 0 35.993 4.096c11.008-8.858 12.851-24.986 4.045-36.045z"  horiz-adv-x="1024" />
      
      <glyph glyph-name="banjiquan" unicode="&#59081;" d="M190.464 3.072c-9.216-55.296 48.64-97.28 97.792-71.168l174.592 91.648c30.72 15.872 67.072 15.872 97.28 0l174.592-92.16c49.664-26.112 107.52 15.872 97.792 71.168l-33.28 194.56c-5.632 33.792 5.632 68.608 30.208 92.672l141.312 137.728c39.936 38.912 17.92 107.008-37.376 115.2l-195.584 28.16c-34.304 5.12-63.488 26.624-78.848 57.344l-87.552 177.152c-24.576 50.176-96.256 50.176-120.832 0L364.032 629.248c-15.36-30.72-44.544-52.224-78.848-57.344l-195.584-28.16C34.304 535.552 12.288 467.456 52.224 428.544l141.312-137.728c24.576-24.064 35.84-58.88 30.208-92.672l-33.28-195.072z m174.592 316.928c7.168 15.36 25.088 22.016 40.96 14.336l91.136-42.496c12.8-5.632 28.672-5.12 43.008 2.048l80.384 39.424c15.36 7.168 33.792 1.024 40.96-14.336 7.168-15.36 1.024-33.792-14.336-40.96l-80.384-38.912c-30.72-15.36-65.536-16.384-95.744-2.56l-91.136 42.496c-2.048 1.024-3.584 2.048-5.12 3.072-11.776 8.704-15.872 24.576-9.728 37.888z"  horiz-adv-x="1024" />
      
      <glyph glyph-name="huiyuan1" unicode="&#59082;" d="M736 21.333a32 32 0 0 0 0-64H288a32 32 0 0 0 0 64h448zM512 810.667a64 64 0 0 0 18.944-125.142L659.947 412.14a42.667 42.667 0 0 1 65.642-14.763L880 524.011a64 64 0 1 0 24.192-10.667l-117.27-368.555a85.333 85.333 0 0 0-81.322-59.456H318.4a85.333 85.333 0 0 0-81.323 59.456L119.83 513.365a64 64 0 1 0 24.32 10.752L299.84 397.205a42.667 42.667 0 0 1 65.6 14.976l128 273.216A64.021 64.021 0 0 0 512 810.667z"  horiz-adv-x="1024" />
      
      <glyph glyph-name="sousuo11" unicode="&#59083;" d="M270.635 625.365c133.312 133.291 349.44 133.291 482.73 0 125.654-125.674 132.864-324.949 21.568-459.05l71.126-71.104a32 32 0 0 0-42.987-47.339l-2.283 2.07-71.104 71.125C595.584 9.77 396.31 16.96 270.635 142.635c-133.291 133.312-133.291 349.44 0 482.73z m437.461-45.269c-108.288 108.31-283.904 108.31-392.192 0-108.31-108.288-108.31-283.904 0-392.192 108.288-108.31 283.904-108.31 392.192 0 108.31 108.288 108.31 283.904 0 392.192z m-147.925 6.507c39.04-8.342 73.024-31.616 96.96-72.171a32 32 0 1 0-55.126-32.512c-14.528 24.619-33.173 37.376-55.253 42.112a93.099 93.099 0 0 1-27.947 1.557l-4.608-0.512-3.328-0.554-1.962-0.427a32 32 0 0 0-20.267 60.63l2.923 0.96c16.512 4.65 40.704 6.89 68.608 0.917z"  horiz-adv-x="1024" />
      
      <glyph glyph-name="fanye-you1" unicode="&#59084;" d="M1019.904 384C1019.904 663.552 791.552 891.904 512 891.904S4.096 663.552 4.096 384s228.352-507.904 507.904-507.904 507.904 228.352 507.904 507.904z m-387.072-25.6l-190.464-190.464c-12.8-12.8-37.888-12.8-50.688 0s-12.8 37.888 0 50.688l164.864 164.864-165.376 165.376c-12.8 12.8-12.8 37.888 0 50.688 6.144 6.144 18.944 12.8 25.6 12.8s18.944-6.144 25.6-12.8L632.832 409.6c18.944-12.8 18.944-38.4 0-51.2z"  horiz-adv-x="1024" />
      
      <glyph glyph-name="fanye-zuo1" unicode="&#59085;" d="M512-123.904c279.347 0 507.904 228.557 507.904 507.904C1019.904 663.345 791.347 891.904 512 891.904 232.65 891.904 4.096 663.345 4.096 384c0-279.347 228.557-507.904 507.904-507.904z m-120.627 533.3l190.464 190.463c6.349 6.349 19.046 12.696 25.395 12.696s19.046-6.349 25.395-12.696c12.698-12.697 12.698-38.095 0-50.792L467.558 384l165.07-165.069c12.697-12.697 12.697-38.093 0-50.79-12.698-12.698-38.096-12.698-50.791 0L391.373 358.605c-19.047 12.697-19.047 38.093 0 50.79z"  horiz-adv-x="1024" />
      
      <glyph glyph-name="dibucaidanxuanze" unicode="&#59086;" d="M925.138 741.724c21.156 23.235 57.134 24.924 80.369 3.774s24.934-57.134 3.773-80.369L427.75 26.271c-22.067-24.238-60-24.853-82.857-1.362L16.153 362.93c-21.908 22.533-21.406 58.553 1.122 80.456 22.523 21.908 58.547 21.407 80.45-1.121l286.582-294.682 540.83 594.14z"  horiz-adv-x="1024" />
      
      <glyph glyph-name="fasong" unicode="&#59087;" d="M233.984 406.528l131.072-92.672c13.824-9.728 32.768-8.192 44.544 3.584l188.416 188.416c9.728 9.728 26.112 9.728 35.84 0 9.728-9.728 9.728-26.112 0-35.84L445.44 281.6c-11.776-11.776-13.824-30.72-3.584-44.544l92.672-131.072c32.768-46.592 104.448-35.84 122.368 18.432l158.208 475.136c17.92 54.272-33.792 105.984-88.064 88.064l-474.624-158.72c-54.272-17.92-64.512-89.6-18.432-122.368z"  horiz-adv-x="1024" />
      
      <glyph glyph-name="tishi1" unicode="&#59088;" d="M512.005 889.15C233.135 888.867 7.142 662.87 6.855 384.004c0.282-278.866 226.28-504.873 505.15-505.154 278.876 0.281 504.863 226.278 505.144 505.154C1016.868 662.871 790.881 888.868 512.005 889.15z m0-938.061c-238.97 0.276-432.63 193.935-432.911 432.916 0.281 238.971 193.94 432.63 432.911 432.911 238.976-0.281 432.635-193.935 432.906-432.91-0.271-238.982-193.93-432.64-432.906-432.917zM512 653.522c-29.609 0-53.688-24.085-53.688-53.688v-264.049c0-29.599 24.084-53.678 53.688-53.678s53.678 24.08 53.678 53.678V599.834c-0.143 29.603-24.074 53.688-53.678 53.688z m-55.265-483.789c0-30.53 24.734-55.26 55.265-55.26 30.51 0 55.26 24.73 55.26 55.26 0.01 30.52-24.714 55.27-55.24 55.291-30.52 0.01-55.27-24.71-55.285-55.23v-0.06z"  horiz-adv-x="1024" />
      
      <glyph glyph-name="youjiantou" unicode="&#59089;" d="M646.144 383.48800000000006l-400.896-400.896c-24.576-24.576-24.576-64.512 0-89.088s64.512-24.576 89.088 0l445.44 445.44c24.576 24.576 24.576 64.512 0 89.088L333.824 873.984c-24.576 24.576-64.512 24.576-89.088 0-24.576-24.576-24.576-64.512 0-89.088l401.408-401.408z"  horiz-adv-x="1024" />
      
      <glyph glyph-name="zhifubaozhifu1" unicode="&#59090;" d="M998.912 201.764V680.94c0 103.296-83.825 187.12-187.182 187.12H212.72c-103.29 0-187.12-83.824-187.12-187.12v-599.01c0-103.29 83.763-187.115 187.12-187.115h599.01c92.037 0 168.627 66.55 184.258 154.081-49.638 21.478-264.74 114.37-376.796 167.844-85.278-103.301-174.587-165.29-309.207-165.29S85.515 134.37 96.282 235.838c7.116 66.612 52.802 175.499 251.233 156.826 104.57-9.795 152.448-29.327 237.737-57.487 22.077 40.443 40.381 84.981 54.313 132.367H261.386v37.473h187.116v67.282h-228.24V613.54h228.24v97.085s2.068 15.212 18.862 15.212h93.558V613.54h243.317v-41.242H560.922v-67.282h198.497c-18.253-74.276-45.932-142.525-80.604-202.142 57.666-20.864 320.097-101.11 320.097-101.11z m-703.826-86.067c-142.223 0-164.73 89.779-157.189 127.319 7.48 37.35 48.666 86.072 127.75 86.072 90.88 0 172.272-23.235 269.966-70.8-68.618-89.369-152.929-142.591-240.527-142.591z"  horiz-adv-x="1024" />
      
      <glyph glyph-name="weixinzhifu1" unicode="&#59091;" d="M374.272 274.432c-4.608-2.56-9.216-3.584-15.36-3.584-12.8 0-23.552 7.168-29.184 17.408l-2.56 4.608-92.16 198.656c-1.024 2.56-1.024 4.608-1.024 7.168 0 9.216 7.168 16.384 16.384 16.384 3.584 0 7.168-1.024 10.752-3.584L369.664 435.2c8.192-4.608 17.408-8.192 28.16-8.192 5.632 0 11.776 1.024 17.408 3.584l510.464 224.256c-91.136 106.496-242.176 175.616-413.184 175.616C233.984 830.464 6.656 644.608 6.656 414.72c0-124.928 68.096-238.08 174.592-314.368 8.192-5.632 13.824-16.384 13.824-26.624 0-3.584-1.024-7.168-2.56-10.24-8.192-31.232-22.528-81.92-22.528-84.48-1.024-3.584-2.56-8.192-2.56-12.8 0-9.216 7.168-16.384 16.384-16.384 3.584 0 7.168 1.024 9.216 3.584l110.08 63.488c8.192 4.608 17.408 8.192 27.136 8.192 4.608 0 10.752-1.024 15.36-2.56 51.712-14.848 107.52-23.04 165.376-23.04 278.528 0 505.856 185.856 505.856 415.744 0 69.12-20.992 135.168-57.344 193.024L377.856 276.992l-3.584-2.56z"  horiz-adv-x="1024" />
      
      <glyph glyph-name="daka" unicode="&#59092;" d="M797.7-42.7H228.3c-70 0-126.9 56.9-126.9 126.9V623.6c0 70 56.9 126.9 126.9 126.9h569.5c70 0 126.9-56.9 126.9-126.9v-539.5c-0.1-69.9-57-126.8-127-126.8zM228.3 665c-22.8 0-41.4-18.6-41.4-41.4v-539.5c0-22.8 18.6-41.4 41.4-41.4h569.5c22.8 0 41.4 18.6 41.4 41.4V623.6c0 22.8-18.6 41.4-41.4 41.4H228.3zM313.2 603.2c-23.6 0-42.8 19.1-42.8 42.8V769.6c0 23.6 19.1 42.8 42.8 42.8 23.6 0 42.8-19.1 42.8-42.8V646c0-23.7-19.1-42.8-42.8-42.8z m373.6 0c-23.6 0-42.8 19.1-42.8 42.8V769.6c0 23.6 19.1 42.8 42.8 42.8 23.6 0 42.8-19.1 42.8-42.8V646c-0.1-23.7-19.2-42.8-42.8-42.8z m195.1-154.7H144.1c-23.6 0-42.8 19.1-42.8 42.8 0 23.6 19.1 42.8 42.8 42.8h737.7c23.6 0 42.8-19.1 42.8-42.8 0-23.7-19.1-42.8-42.7-42.8zM485.3 95.8c-10.9 0-21.9 4.2-30.2 12.5L336.5 227c-16.7 16.7-16.7 43.8 0 60.5 16.7 16.7 43.8 16.7 60.5 0l88.4-88.4 177.3 177.3c16.7 16.7 43.8 16.7 60.5 0 16.7-16.7 16.7-43.8 0-60.5L515.5 108.4c-8.3-8.4-19.3-12.6-30.2-12.6z"  horiz-adv-x="1024" />
      
      <glyph glyph-name="bofang_anniu" unicode="&#59033;" d="M512 853.333333C251.733333 853.333333 42.666667 644.266667 42.666667 384s209.066667-469.333333 469.333333-469.333333 469.333333 209.066667 469.333333 469.333333S772.266667 853.333333 512 853.333333z m170.666667-505.6l-224-130.133333c-27.733333-17.066667-64 4.266667-64 36.266667V514.133333c0 32 36.266667 53.333333 64 36.266667L682.666667 420.266667c27.733333-14.933333 27.733333-57.6 0-72.533334z"  horiz-adv-x="1024" />
      
      <glyph glyph-name="wordwenben" unicode="&#59031;" d="M791.524324 741.016216H332.108108c-42.897297 0-76.108108-34.594595-76.108108-76.108108v-76.108108h-51.2c-27.675676 0-51.2-23.524324-51.2-51.2V231.783784c0-27.675676 23.524324-51.2 51.2-51.2h51.2v-76.108108c0-42.897297 34.594595-76.108108 76.108108-76.108108h459.416216c42.897297 0 76.108108 34.594595 76.108108 76.108108V663.524324c1.383784 42.897297-33.210811 77.491892-76.108108 77.491892zM244.92973 442.118919h40.129729l26.291892-94.097297h5.535135l29.05946 94.097297h34.594595l29.059459-94.097297h5.535135l26.291892 94.097297h40.12973l-40.12973-134.227027h-56.735135l-19.372973 70.572973H359.783784l-19.372973-70.572973h-55.351352l-40.129729 134.227027z m572.886486-339.027027c0-13.837838-11.07027-24.908108-24.908108-24.908108H332.108108c-13.837838 0-24.908108 11.07027-24.908108 24.908108v76.108108H512c27.675676 0 51.2 23.524324 51.2 51.2v51.2h178.508108c13.837838 0 24.908108 11.07027 24.908108 24.908108s-11.07027 24.908108-24.908108 24.908108h-179.891892v51.2h178.508108c13.837838 0 24.908108 11.07027 24.908108 24.908108s-11.07027 24.908108-24.908108 24.908108H561.816216v51.2h178.508108c13.837838 0 24.908108 11.07027 24.908108 24.908109s-11.07027 24.908108-24.908108 24.908108H561.816216c0 27.675676-23.524324 51.2-51.2 51.2H307.2V660.756757c0 13.837838 11.07027 24.908108 24.908108 24.908108h459.416216c13.837838 0 24.908108-11.07027 24.908108-24.908108v-557.664865z"  horiz-adv-x="1024" />
      
      <glyph glyph-name="zhaopian" unicode="&#59032;" d="M874.666667 661.333333h-157.866667l-57.6 115.2c-4.266667 8.533333-10.666667 12.8-19.2 12.8H384c-8.533333 0-14.933333-4.266667-19.2-12.8L307.2 661.333333H149.333333c-46.933333 0-85.333333-38.4-85.333333-85.333333v-512c0-46.933333 38.4-85.333333 85.333333-85.333333h725.333334c46.933333 0 85.333333 38.4 85.333333 85.333333V576c0 46.933333-38.4 85.333333-85.333333 85.333333zM512 149.333333c-93.866667 0-170.666667 76.8-170.666667 170.666667s76.8 170.666667 170.666667 170.666667 170.666667-76.8 170.666667-170.666667-76.8-170.666667-170.666667-170.666667z"  horiz-adv-x="1024" />
      
      <glyph glyph-name="sousuo" unicode="&#59030;" d="M916.48 35.84l-158.72 158.72c56.32 71.68 92.16 158.72 92.16 256 0 220.16-179.2 399.36-399.36 399.36S46.08 670.72 46.08 445.44s179.2-399.36 399.36-399.36c97.28 0 184.32 35.84 256 92.16l158.72-158.72c5.12-5.12 15.36-10.24 25.6-10.24s20.48 5.12 25.6 10.24c20.48 15.36 20.48 40.96 5.12 56.32z m-793.6 409.6c0 179.2 143.36 322.56 322.56 322.56S768 624.64 768 445.44s-143.36-322.56-322.56-322.56-322.56 148.48-322.56 322.56z"  horiz-adv-x="1024" />
      
      <glyph glyph-name="xiangxiazhankai" unicode="&#59028;" d="M898.844444 2.844444H130.844444c-22.755556 0-45.511111 17.066667-45.511111 45.511112s17.066667 45.511111 45.511111 45.511111h768c22.755556 0 45.511111-17.066667 45.511112-45.511111s-22.755556-45.511111-45.511112-45.511112zM898.844444 213.333333H130.844444c-22.755556 0-45.511111 17.066667-45.511111 45.511111s17.066667 45.511111 45.511111 45.511112h768c22.755556 0 45.511111-17.066667 45.511112-45.511112s-22.755556-45.511111-45.511112-45.511111zM512 401.066667c-11.377778 0-17.066667 5.688889-28.444444 11.377777L102.4 708.266667c-17.066667 11.377778-22.755556 39.822222-5.688889 56.888889 11.377778 17.066667 39.822222 22.755556 56.888889 5.688888L512 497.777778l358.4 278.755555c17.066667 17.066667 45.511111 11.377778 62.577778-5.688889 17.066667-17.066667 11.377778-45.511111-5.688889-62.577777L540.444444 406.755556c-11.377778-5.688889-17.066667-5.688889-28.444444-5.688889z"  horiz-adv-x="1024" />
      
      <glyph glyph-name="xiangshangshouqi" unicode="&#59029;" d="M898.844444 685.511111H130.844444c-28.444444 0-45.511111 17.066667-45.511111 39.822222s17.066667 45.511111 45.511111 45.511111h768c22.755556 0 45.511111-17.066667 45.511112-45.511111s-22.755556-39.822222-45.511112-39.822222zM898.844444 469.333333H130.844444c-22.755556 0-45.511111 17.066667-45.511111 45.511111s17.066667 39.822222 45.511111 39.822223h768c22.755556 0 45.511111-17.066667 45.511112-45.511111s-22.755556-39.822222-45.511112-39.822223zM893.155556-14.222222c-11.377778 0-17.066667 5.688889-28.444445 11.377778L512 270.222222l-358.4-278.755555c-17.066667-17.066667-45.511111-11.377778-62.577778 5.688889-17.066667 17.066667-11.377778 45.511111 5.688889 62.577777l386.844445 301.511111c17.066667 11.377778 39.822222 11.377778 51.2 0l386.844444-301.511111c17.066667-17.066667 22.755556-39.822222 5.688889-62.577777-5.688889-5.688889-17.066667-11.377778-34.133333-11.377778z"  horiz-adv-x="1024" />
      
      <glyph glyph-name="dianhua" unicode="&#59488;" d="M871.651556 125.155556a53.361778 53.361778 0 0 0 0-75.377778l-37.717334-37.717334c-27.875556-27.875556-64.512-44.828444-108.942222-50.460444a264.647111 264.647111 0 0 0-33.166222-2.048 370.915556 370.915556 0 0 0-104.163556 16.327111c-100.238222 29.468444-205.653333 95.914667-296.789333 186.993778-91.079111 91.136-157.582222 196.551111-186.993778 296.789333-14.677333 49.948444-19.512889 96.142222-14.279111 137.329778 5.632 44.373333 22.584889 81.066667 50.460444 108.942222l37.717334 37.717334a53.418667 53.418667 0 0 0 75.377778 0l165.944888-165.944889a53.418667 53.418667 0 0 0 0-75.434667l-37.717333-37.660444c-21.333333-21.333333-0.056889-90.453333 60.359111-150.869334 60.472889-60.416 129.479111-81.692444 150.869334-60.302222l37.717333 37.660444a53.418667 53.418667 0 0 0 75.377778 0l165.944889-165.944888zM597.333333 512a42.666667 42.666667 0 0 0 42.666667-42.666667 21.333333 21.333333 0 1 1 42.666667 0A85.447111 85.447111 0 0 1 597.333333 554.666667a21.333333 21.333333 0 0 1 0-42.666667z m314.481778 90.225778A341.105778 341.105778 0 0 1 597.333333 810.666667a21.333333 21.333333 0 0 1 0-42.666667 299.008 299.008 0 0 0 298.666667-298.666667 21.333333 21.333333 0 1 1 42.666667 0 339.171556 339.171556 0 0 1-26.851556 132.892445zM597.333333 640c94.094222 0 170.666667-76.572444 170.666667-170.666667a21.333333 21.333333 0 1 1 42.666667 0 213.390222 213.390222 0 0 1-213.333334 213.333334 21.333333 21.333333 0 0 1 0-42.666667z"  horiz-adv-x="1024" />
      
      <glyph glyph-name="bangka" unicode="&#59486;" d="M816 784H208a160.469333 160.469333 0 0 1-160-160v-480a160.469333 160.469333 0 0 1 160-160h608a160.469333 160.469333 0 0 1 160 160V624a160.469333 160.469333 0 0 1-160 160z m96-640a96.298667 96.298667 0 0 0-96-96H208a96.298667 96.298667 0 0 0-96 96V624a96.298667 96.298667 0 0 0 96 96h608a96.298667 96.298667 0 0 0 96-96v-480zM459.178667 406.4a126.976 126.976 0 0 1 36.821333 89.6c0 70.4-57.6 128-128 128s-128-57.6-128-128c0-35.2 14.421333-67.2 36.778667-89.6A174.08 174.08 0 0 1 192 256v-57.6c0-30.378667 24.021333-54.4 52.778667-54.4h246.4c28.8 0 52.821333 24.021333 52.821333 54.4V256a174.08 174.08 0 0 1-84.821333 150.4z m-155.178667 89.6c0 35.2 28.8 64 64 64s64-28.8 64-64-28.8-64-64-64-64 28.8-64 64z m176-288H256V256a111.317333 111.317333 0 0 0 112 112A111.317333 111.317333 0 0 0 480 256v-48z m320 208H640a32.085333 32.085333 0 0 1-32-32c0-17.578667 14.421333-32 32-32h160c17.621333 0 32 14.421333 32 32a32.085333 32.085333 0 0 1-32 32z m0 160h-192a32.085333 32.085333 0 0 1-32-32c0-17.578667 14.421333-32 32-32h192c17.621333 0 32 14.421333 32 32a32.085333 32.085333 0 0 1-32 32z m0-320h-128a32.085333 32.085333 0 0 1-32-32c0-17.621333 14.421333-32 32-32h128c17.621333 0 32 14.378667 32 32a32.085333 32.085333 0 0 1-32 32z"  horiz-adv-x="1024" />
      
      <glyph glyph-name="biaozhunzhao" unicode="&#59487;" d="M144 288c17.493333 0 31.701333-14.08 32-31.488v-208.512H384a32 32 0 0 0 0.512-64H176a64 64 0 0 0-64 64v208.512a32 32 0 0 0 32 31.488z m736 0c17.493333 0 31.701333-14.08 32-31.488v-208.512a64 64 0 0 0-64-64h-208.512a32 32 0 0 0 0.512 64h208v208.512a32 32 0 0 0 32 31.488z m-736 192a32 32 0 0 1 32 31.488V720H384a32 32 0 0 1 0.512 64H176a64 64 0 0 1-64-64v-208.512a32 32 0 0 1 32-31.488z m736 0a32 32 0 0 1 32 31.488V720a64 64 0 0 1-64 64h-208.512a32 32 0 0 1 0.512-64h208v-208.512a32 32 0 0 1 32-31.488zM527.104 646.997333a162.005333 162.005333 0 0 0 100.565333-289.024l-1.194666-0.938666 1.621333-0.853334a238.336 238.336 0 0 0 128.853333-206.293333v-2.645333l0.042667-2.901334a29.226667 29.226667 0 0 0-58.453333-0.853333v0.853333a179.754667 179.754667 0 0 1-159.530667 178.773334l-2.005333 0.170666h-0.64a154.453333 154.453333 0 0 0-6.144-0.256h-3.114667c-5.674667 0-11.349333 0.256-16.938667 0.853334l-0.682666 0.085333-2.048-0.128a179.712 179.712 0 0 1-167.765334-170.837333l-0.128-2.773334-0.085333-2.816v-3.072a29.226667 29.226667 0 0 0-58.453333 0 238.421333 238.421333 0 0 0 135.68 215.210667l2.474666 1.194667 2.602667 1.194666-0.725333 0.597334a161.706667 161.706667 0 0 0-55.893334 119.424V484.992c0 89.472 72.533333 162.005333 161.962667 162.005333z m0-58.453333a103.552 103.552 0 0 1-15.829333-205.909333l0.725333-0.085334h0.64l4.778667 0.085334h1.578666c5.802667 0 11.562667-0.170667 17.322667-0.597334l0.981333-0.085333 0.810667 0.085333a103.552 103.552 0 0 1 92.544 101.376v1.578667a103.552 103.552 0 0 1-103.552 103.552z"  horiz-adv-x="1024" />
      
      </font>
</defs>
</svg>
